<svg width="359" height="289" viewBox="0 0 359 289" fill="none" xmlns="http://www.w3.org/2000/svg">
<path d="M155.943 281.5H153.043V252.4C153.143 249 151.743 246.4 149.043 244.9C147.643 244.1 146.043 243.7 144.243 243.7H75.8425C71.8425 243.7 68.6425 242.5 66.5425 240.2C63.4425 236.7 63.6425 232 63.7425 231.3C63.7425 223.4 69.6425 220.8 72.7425 220.6H72.8425H96.0425C102.143 219.2 102.043 212.9 102.043 212.6V212.5C102.043 205 94.8425 203.8 93.9425 203.6L27.6425 203.7L12.8425 203.5C8.54253 203.5 5.24252 202.3 3.04252 200C0.142523 197 0.242528 193.1 0.242528 192.6C0.242528 192.1 0.242529 189.9 0.142529 178.3C0.142529 172.9 0.142523 167.2 0.042523 166.8C-0.257477 162.2 1.04252 158.2 3.54252 155.5C5.94252 152.9 9.34253 151.6 13.6425 151.5H33.0425V154.4H13.7425C10.2425 154.5 7.54253 155.5 5.74253 157.5C3.74253 159.6 2.74252 162.9 2.94252 166.7C2.94252 166.8 2.94252 166.8 3.04252 178.3C3.04252 184.7 3.14253 191.9 3.14253 192.6V192.7V192.8C3.14253 192.8 3.04253 195.9 5.14253 198.1C6.84253 199.8 9.44252 200.7 12.9425 200.7L27.7425 200.8L94.1425 200.7H94.2425C97.9425 201.1 104.943 204.1 104.943 212.4C105.043 215.5 103.443 221.8 96.5425 223.3H96.3425H72.9425C72.1425 223.4 66.6425 224.2 66.6425 231.2V231.3C66.6425 231.3 66.2425 235.4 68.7425 238.1C70.3425 239.8 72.7425 240.7 75.9425 240.7H144.443C146.643 240.7 148.843 241.3 150.643 242.3C153.143 243.8 156.143 246.7 156.043 252.3V281.5H155.943Z" fill="white"/>
<path d="M228.043 160.2H176.943V179.1H228.043V160.2Z" fill="#323641"/>
<path d="M233.843 179.1H202.443H171.043L164.343 184.2H202.443H240.643L233.843 179.1Z" fill="#292B37"/>
<path d="M112.243 30.3999H292.743C295.143 30.3999 297.143 32.3999 297.143 34.7999V157.8C297.143 160.2 295.143 162.2 292.743 162.2H112.243C109.843 162.2 107.843 160.2 107.843 157.8V34.7999C107.843 32.3999 109.843 30.3999 112.243 30.3999Z" fill="#292B37"/>
<path d="M291.343 136.7C291.343 137.7 290.543 138.5 289.543 138.5H116.043C115.043 138.5 114.243 137.7 114.243 136.7V38.3C114.243 37.3 115.043 36.5 116.043 36.5H289.543C290.543 36.5 291.343 37.3 291.343 38.3V136.7Z" fill="#3F434F"/>
<path d="M228.043 162.2H176.943V164.2H228.043V162.2Z" fill="#1E2028"/>
<path d="M241.143 184.6H163.843L165.743 183.1H239.143L241.143 184.6Z" fill="#1E2028"/>
<path d="M203.943 150.1C203.943 150.9 203.343 151.5 202.543 151.5C201.743 151.5 201.143 150.9 201.143 150.1C201.143 149.3 201.743 148.7 202.543 148.7C203.343 148.7 203.943 149.3 203.943 150.1Z" fill="white"/>
<path d="M213.443 150.1C213.443 151.2 212.543 152.1 211.443 152.1C210.343 152.1 209.443 151.2 209.443 150.1C209.443 149 210.343 148.1 211.443 148.1C212.543 148.1 213.443 149 213.443 150.1Z" fill="white"/>
<path d="M222.343 150.1C222.343 151.2 221.443 152.1 220.343 152.1C219.243 152.1 218.343 151.2 218.343 150.1C218.343 149 219.243 148.1 220.343 148.1C221.443 148.1 222.343 149 222.343 150.1Z" fill="white"/>
<path d="M186.643 150.1C186.643 151.2 185.743 152.1 184.643 152.1C183.543 152.1 182.643 151.2 182.643 150.1C182.643 149 183.543 148.1 184.643 148.1C185.743 148.1 186.643 149 186.643 150.1Z" fill="white"/>
<path d="M195.643 150.1C195.643 151.2 194.743 152.1 193.643 152.1C192.543 152.1 191.643 151.2 191.643 150.1C191.643 149 192.543 148.1 193.643 148.1C194.643 148.1 195.643 149 195.643 150.1Z" fill="white"/>
<path d="M137.543 146.2L133.643 144.1L137.743 142.5C138.643 142.1 139.243 141.3 139.143 140.3L139.043 139.2V139L138.843 135.8C138.743 134.8 138.143 134 137.143 133.8L132.243 132.5C132.243 132.4 132.243 132.3 132.143 132.2L136.243 129.3C137.043 128.7 137.343 127.7 137.043 126.8L136.743 125.7L136.643 125.5L135.643 122.4C135.343 121.5 134.543 120.8 133.543 120.8H128.443C128.343 120.5 128.243 120.3 128.043 120L131.343 116.1C131.943 115.4 132.043 114.3 131.543 113.5L130.943 112.5L130.843 112.3L129.143 109.6C128.643 108.8 127.643 108.4 126.643 108.6L121.743 109.9C121.643 109.8 121.543 109.6 121.343 109.5L123.543 104.9C123.943 104 123.743 103 123.043 102.3L122.243 101.5L122.043 101.4L119.643 99.2C118.943 98.5 117.843 98.4 117.043 98.9L112.543 101.3L112.443 101.2L113.443 96.2C113.643 95.2 113.143 94.3 112.343 93.8L111.343 93.2L111.143 93.1L108.343 91.5C107.543 91 106.443 91.1 105.743 91.8L102.043 95.3C101.843 95.2 101.643 95.1 101.443 95.1L101.143 90C101.043 89 100.443 88.2 99.4425 88L98.3425 87.7L98.1425 87.6L95.0425 86.8C94.1425 86.6 93.1425 86.9 92.5425 87.8L89.8425 92.1C89.6425 92.1 89.3425 92 89.1425 92L87.5425 87.1C87.2425 86.2 86.3425 85.5 85.4425 85.5H80.8425C79.8425 85.5 79.0425 86.2 78.7425 87.1L77.1425 92C76.8425 92 76.6425 92.1 76.3425 92.1L73.6425 87.8C73.1425 87 72.1425 86.6 71.1425 86.8L70.0425 87.1L69.8425 87.2L66.7425 88C65.8425 88.2 65.1425 89.1 65.0425 90L64.7425 95.1H64.6425L60.9425 91.6C60.2425 90.9 59.1425 90.8 58.3425 91.3L57.3425 91.8L57.1425 91.9L54.3425 93.5C53.4425 94 53.0425 94.9 53.2425 95.9L54.2425 100.9C54.0425 101.1 53.7425 101.3 53.5425 101.4L49.0425 99C48.1425 98.5 47.1425 98.7 46.4425 99.3L45.6425 100.1L45.4425 100.2L43.1425 102.4C42.4425 103.1 42.2425 104.1 42.6425 105L44.8425 109.6C44.6425 109.9 44.3425 110.2 44.1425 110.5L39.2425 109.3C38.3425 109.1 37.3425 109.5 36.8425 110.3L36.2425 111.3L36.1425 111.5L34.4425 114.3C33.9425 115.1 34.0425 116.2 34.6425 116.9L37.6425 120.4H33.0425C32.0425 120.4 31.2425 121 30.9425 122L30.6425 123.1L30.5425 123.3L29.5425 126.4C29.2425 127.3 29.5425 128.3 30.3425 128.9L34.2425 131.7L29.5425 132.8C28.6425 133 27.9425 133.8 27.8425 134.8L27.7425 135.9V136.1L27.5425 139.3C27.4425 140.3 28.0425 141.2 28.9425 141.5L33.6425 143.4C33.6425 143.7 33.6425 144.1 33.7425 144.4L29.2425 146.8C28.3425 147.3 27.9425 148.2 28.1425 149.2L28.3425 150.3V150.5L28.9425 153.7C29.1425 154.7 29.9425 155.4 30.8425 155.5L35.8425 156.1C35.9425 156.5 36.1425 157 36.2425 157.4L32.6425 160.9C31.9425 161.6 31.7425 162.6 32.1425 163.5L32.6425 164.5L32.7425 164.7L34.1425 167.6C34.5425 168.5 35.5425 169 36.4425 168.8L41.4425 168.1C41.5425 168.3 41.6425 168.5 41.8425 168.6L39.2425 172.9C38.7425 173.7 38.8425 174.8 39.4425 175.5L40.1425 176.4L40.2425 176.6L42.3425 179.1C42.9425 179.8 44.0425 180.1 44.9425 179.7L49.4425 177.8L47.9425 182.4C47.6425 183.3 47.9425 184.3 48.7425 184.9L49.6425 185.6L49.8425 185.7L52.4425 187.6C53.2425 188.2 54.3425 188.2 55.0425 187.6L59.1425 184.6C59.2425 184.6 59.3425 184.7 59.3425 184.7L59.0425 189.8C58.9425 190.8 59.5425 191.7 60.4425 192L61.5425 192.4L61.7425 192.5L64.7425 193.7C65.6425 194.1 66.6425 193.8 67.3425 193L70.5425 189.1C70.7425 189.1 70.9425 189.2 71.1425 189.2L72.1425 194.2C72.3425 195.2 73.1425 195.9 74.0425 196L75.1425 196.1H75.3425L78.5425 196.5C79.5425 196.6 80.4425 196.1 80.8425 195.2L82.9425 190.6C83.1425 190.6 83.2425 190.6 83.4425 190.6L85.6425 195.2C86.0425 196.1 87.0425 196.6 87.9425 196.5L89.0425 196.4H89.2425L92.4425 196C93.4425 195.9 94.1425 195.1 94.3425 194.2L95.2425 189.2C95.3425 189.2 95.4425 189.1 95.5425 189.1L98.7425 193C99.3425 193.7 100.443 194 101.343 193.6L102.343 193.2L102.543 193.1L105.543 191.9C106.443 191.5 107.043 190.6 106.943 189.7L106.543 184.6C106.743 184.5 106.943 184.4 107.143 184.3L111.243 187.3C112.043 187.9 113.143 187.9 113.843 187.3L114.743 186.6L114.943 186.5L117.543 184.6C118.343 184 118.643 183 118.343 182.1L116.743 177.3C116.943 177.1 117.043 177 117.243 176.8L122.043 178.6C122.943 178.9 123.943 178.7 124.643 177.9L125.343 177L125.443 176.8L127.443 174.3C128.043 173.5 128.143 172.5 127.543 171.7L124.743 167.5C124.843 167.4 124.843 167.3 124.943 167.2L129.943 167.8C130.943 167.9 131.843 167.4 132.243 166.5L132.743 165.5L132.843 165.3L134.143 162.3C134.543 161.4 134.343 160.4 133.643 159.7L129.943 156.3C130.043 156.1 130.043 155.9 130.143 155.8L135.143 155.1C136.143 155 136.843 154.2 137.043 153.3L137.243 152.2V152L137.843 148.8C138.843 147.6 138.443 146.6 137.543 146.2ZM83.4425 189.2C56.8425 189.2 35.3425 167.6 35.3425 141.1C35.3425 114.5 56.8425 93 83.4425 93C110.043 93 131.543 114.5 131.543 141.1C131.643 167.6 110.043 189.2 83.4425 189.2Z" fill="#292B37"/>
<path d="M122.143 121C111.043 99.5998 84.7425 91.2998 63.3425 102.3C41.9425 113.4 33.6425 139.7 44.6425 161.1C55.7425 182.5 82.0425 190.8 103.443 179.8C124.843 168.7 133.243 142.4 122.143 121Z" fill="#19B2B8"/>
<path d="M114.943 144.3C114.843 144.2 114.643 143.9 114.643 143.9C114.643 143.8 114.543 143.9 114.443 144C114.343 144.1 114.343 144.6 114.343 144.7C114.343 144.8 114.343 144.8 114.343 144.9C114.343 145 114.343 145.1 114.343 145.5C114.343 145.5 114.343 145.8 114.343 145.9C114.343 146 114.443 146 114.543 146.2C114.643 146.4 114.643 146.6 114.743 146.7C114.843 146.8 115.043 146.7 115.243 146.7C115.543 146.6 115.243 146.5 115.343 146.3C115.443 146.1 115.443 145.8 115.343 145.8C115.243 145.7 115.343 145.6 115.343 145.5C115.343 145.4 115.343 145.2 115.343 145C115.243 144.8 115.243 144.7 115.243 144.6C115.243 144.4 115.043 144.4 114.943 144.3Z" fill="#292B37"/>
<path d="M124.143 145.7C124.043 145.5 123.943 146 123.843 146.1C123.743 146.2 123.743 146 123.743 145.9C123.643 145.8 123.543 145.5 123.343 145.4C123.243 145.3 123.143 145.2 123.043 145C122.943 144.8 122.843 144.8 122.843 144.6C122.843 144.4 122.843 144.2 122.643 144.1C122.443 144 122.443 144.2 122.343 144.3C122.243 144.5 122.143 144.4 122.043 144.4C121.943 144.4 121.943 144.2 121.843 144.1C121.743 144 121.743 144.2 121.743 144.3C121.743 144.4 121.943 144.6 121.843 144.7C121.843 144.8 121.843 145 121.843 145.2C121.943 145.3 121.943 145.4 122.243 145.4L122.343 145.5C122.343 145.6 122.443 145.8 122.443 146C122.443 146.2 122.443 146.5 122.543 146.6C122.643 146.7 122.843 146.8 122.943 147C123.043 147.2 123.043 147.2 123.043 147.5C123.043 147.7 123.243 147.6 123.243 147.6C123.343 147.6 123.443 147.6 123.543 147.6C123.643 147.7 123.543 148.1 123.543 148.2C123.543 148.3 123.643 148.9 123.643 149C123.643 149.2 123.843 149.5 124.043 149.7C124.243 149.9 124.043 150 124.143 150.3C124.243 150.6 124.343 150.3 124.543 150.2C124.643 150.1 124.743 149.8 124.743 149.7C124.743 149.5 124.743 149.3 124.843 149.1C124.943 148.9 125.043 148.9 125.043 148.6C125.143 148.3 125.043 148 124.943 147.6C124.843 147.2 124.843 147.5 124.743 147.4C124.643 147.3 124.543 146.8 124.543 146.6C124.543 146.4 124.443 146.3 124.343 146.2C124.343 146.2 124.243 145.9 124.143 145.7Z" fill="#292B37"/>
<path d="M122.343 146.8C122.343 146.7 122.343 146.4 122.343 146.2C122.243 146 122.243 146.3 122.043 146.4C121.943 146.5 122.243 146.7 122.343 146.8Z" fill="#292B37"/>
<path d="M122.843 147.5C122.943 147.5 122.943 147.3 122.843 147.1C122.743 146.9 122.743 146.9 122.543 146.9C122.343 147 122.543 147.1 122.643 147.4C122.743 147.4 122.743 147.5 122.843 147.5Z" fill="#292B37"/>
<path d="M123.343 148.1C123.343 147.9 123.243 148 123.043 148C122.843 148 122.943 148.1 123.043 148.5C123.043 148.5 123.043 148.7 123.243 148.6C123.443 148.5 123.343 148.3 123.343 148.1Z" fill="#292B37"/>
<path d="M83.3425 100.7C83.5425 100.5 83.0425 100.6 82.9425 100.7C82.8425 100.7 82.7425 100.9 82.8425 101C82.9425 101 83.2425 100.9 83.3425 100.7Z" fill="#292B37"/>
<path d="M82.3425 100.8C82.4425 100.7 82.2425 100.7 82.0425 100.7C81.8425 100.6 81.9425 100.9 82.1425 101C82.0425 101 82.2425 100.9 82.3425 100.8Z" fill="#292B37"/>
<path d="M83.4425 100.5C83.5425 100.4 82.9425 100.5 82.9425 100.6L83.0425 100.7C83.0425 100.6 83.3425 100.5 83.4425 100.5Z" fill="#292B37"/>
<path d="M88.9425 100.2C89.1425 100.1 88.6425 100.1 88.5425 100.1C88.4425 100.1 88.2425 99.9002 88.2425 99.9002C88.1425 99.8002 88.1425 99.8002 88.0425 100C87.9425 100.2 88.1425 100.2 88.2425 100.4C88.2425 100.3 88.6425 100.3 88.9425 100.2Z" fill="#292B37"/>
<path d="M88.7425 100.3C88.6425 100.3 88.4425 100.4 88.5425 100.5C88.5425 100.5 88.8425 100.6 89.0425 100.6C89.2425 100.7 89.1425 100.5 89.3425 100.4C89.5425 100.3 89.7425 100.4 89.8425 100.3C89.9425 100.2 89.3425 100.2 88.9425 100.3C88.6425 100.5 88.8425 100.4 88.7425 100.3Z" fill="#292B37"/>
<path d="M90.8425 100.2C90.8425 100.2 90.9425 100.3 91.0425 100.3C91.2425 100.3 91.2425 100.3 91.4425 100.3C91.6425 100.3 91.5425 100.1 91.5425 100.1C91.5425 100.1 91.6425 99.8001 91.7425 99.8001C91.8425 99.7001 91.6425 99.6001 91.5425 99.7001C91.4425 99.8001 91.4425 100 91.3425 100.1C91.2425 100.2 91.1425 100.2 91.1425 100.2C91.1425 100.2 90.8425 100.1 90.5425 100.2C90.3425 100.2 90.5425 100.2 90.8425 100.2Z" fill="#292B37"/>
<path d="M68.9425 124.1C68.8425 124 68.5425 124.1 68.1425 124.1C67.7425 124.1 67.6425 124 67.3425 124C67.1425 124 67.0425 124.5 67.2425 124.7C67.4425 124.9 67.7425 125 67.9425 125C68.2425 125.1 68.0425 125.2 68.2425 125.4C68.2425 125.4 68.4425 125.5 68.5425 125.4C68.6425 125.3 68.7425 125.1 68.8425 124.8C69.0425 124.5 68.9425 124.2 68.9425 124.1Z" fill="#292B37"/>
<path d="M65.1425 123.5C65.2425 123.6 65.2425 123.4 65.4425 123.3C65.6425 123.2 65.3425 123.5 65.4425 123.7C65.4425 123.7 65.5425 123.7 65.6425 123.7C65.7425 123.7 65.7425 123.5 65.7425 123.3C65.7425 123.1 65.8425 123.1 66.0425 123C66.1425 122.9 66.1425 122.8 66.1425 122.6C66.1425 122.4 66.2425 122 66.2425 121.9C66.2425 121.8 65.9425 122.1 65.7425 122.3C65.5425 122.4 65.2425 122.8 65.1425 123.1C65.0425 123.3 65.0425 123.4 65.1425 123.5Z" fill="#292B37"/>
<path d="M66.3425 121.6C66.4425 121.6 66.3425 121.4 66.4425 121.3C66.4425 121.2 66.6425 120.9 66.6425 120.7C66.6425 120.5 66.4425 120.7 66.3425 120.8C66.2425 120.9 66.1425 120.9 66.0425 121.1C65.9425 121.2 66.1425 121.4 66.3425 121.6C66.2425 121.6 66.2425 121.6 66.3425 121.6Z" fill="#292B37"/>
<path d="M73.7425 127.3C73.9425 127.4 73.9425 127.2 74.0425 127.1C74.0425 127.1 74.2425 127.1 74.5425 127.1C74.8425 127.2 75.1425 127.3 75.3425 127.2C75.6425 127.1 75.6425 126.9 75.5425 126.7C75.4425 126.5 75.1425 126.6 74.9425 126.6C74.7425 126.6 74.7425 126.5 74.6425 126.5C74.5425 126.5 74.2425 126.5 74.1425 126.5C74.0425 126.5 73.8425 126.4 73.6425 126.5C73.5425 126.6 73.7425 126.7 73.5425 126.9C73.5425 127.2 73.6425 127.3 73.7425 127.3Z" fill="#292B37"/>
<path d="M75.2425 124.1C75.3425 124.2 75.4425 124 75.6425 124.1C75.6425 124.1 75.7425 124.1 75.8425 124.1C75.9425 124.1 75.9425 123.9 75.9425 123.7C75.8425 123.5 75.7425 123.5 75.5425 123.5C75.3425 123.5 75.4425 123.7 75.4425 123.9C75.3425 124 75.1425 124 75.2425 124.1Z" fill="#292B37"/>
<path d="M75.1425 124.9C75.1425 124.9 75.2425 124.9 75.3425 124.8C75.4425 124.8 75.5425 124.7 75.4425 124.5C75.4425 124.3 75.3425 124.3 75.1425 124.4C74.9425 124.6 75.0425 124.8 75.1425 124.9Z" fill="#292B37"/>
<path d="M73.5425 126.1C73.5425 126 73.6425 125.9 73.3425 125.9C73.1425 125.9 73.1425 126.1 73.2425 126.3C73.3425 126.3 73.5425 126.2 73.5425 126.1Z" fill="#292B37"/>
<path d="M74.6425 125.9C74.8425 125.8 74.7425 125.8 74.6425 125.7C74.5425 125.5 74.3425 125.7 74.4425 125.9C74.4425 125.8 74.4425 126 74.6425 125.9Z" fill="#292B37"/>
<path d="M75.6425 126.1C75.6425 126.1 75.8425 126.1 75.8425 125.9C75.8425 125.7 75.8425 125.7 75.6425 125.8C75.4425 125.8 75.4425 126 75.6425 126.1Z" fill="#292B37"/>
<path d="M76.3425 125.8C76.3425 125.6 76.2425 125.6 76.1425 125.7C76.0425 125.7 76.0425 125.8 76.1425 125.9C76.1425 125.8 76.3425 125.9 76.3425 125.8Z" fill="#292B37"/>
<path d="M76.0425 126.4C76.0425 126.4 76.1425 126.4 76.3425 126.3C76.4425 126.2 76.3425 126.2 76.1425 126.1C76.0425 126 75.9425 126.1 76.0425 126.4Z" fill="#292B37"/>
<path d="M76.9425 126.5C77.0425 126.3 76.7425 126.2 76.6425 126.2C76.5425 126.1 76.3425 126.4 76.4425 126.6C76.4425 126.6 76.4425 126.7 76.5425 126.8C76.5425 126.8 76.8425 126.7 76.9425 126.5Z" fill="#292B37"/>
<path d="M76.2425 126.5C76.1425 126.4 76.0425 126.6 76.0425 126.7C76.0425 126.7 76.1425 126.8 76.3425 126.7C76.5425 126.6 76.3425 126.6 76.2425 126.5Z" fill="#292B37"/>
<path d="M79.5425 127C79.3425 127 79.5425 127.2 79.5425 127.4C79.5425 127.5 79.5425 127.7 79.7425 127.9C79.7425 127.9 79.9425 127.9 80.0425 127.8C80.1425 127.7 80.3425 127.5 80.5425 127.4C80.7425 127.3 80.9425 127.3 81.0425 127.1C81.0425 126.9 81.4425 126.8 81.4425 126.8C81.5425 126.8 81.3425 126.7 81.1425 126.6C80.9425 126.5 80.8425 126.7 80.6425 126.8C80.4425 126.9 80.3425 126.9 80.2425 126.8C80.1425 126.6 79.9425 126.9 79.9425 127C80.0425 127 79.7425 127 79.5425 127Z" fill="#292B37"/>
<path d="M89.5425 165.3C89.5425 165.3 89.6425 165.3 89.8425 165.3C90.0425 165.3 89.9425 165 89.8425 164.9C89.7425 164.7 89.4425 165 89.2425 165.1C89.1425 165.3 89.5425 165.2 89.5425 165.3Z" fill="#292B37"/>
<path d="M91.4425 165.6C91.6425 165.7 91.6425 165.5 91.8425 165.3C91.9425 165.1 91.8425 165.1 91.5425 165.1C91.2425 165.1 91.2425 165.2 91.3425 165.4C91.2425 165.5 91.2425 165.5 91.4425 165.6Z" fill="#292B37"/>
<path d="M92.8425 164.2C92.9425 164.1 92.9425 164 92.7425 163.9C92.6425 163.8 92.5425 164.1 92.6425 164.3C92.5425 164.3 92.7425 164.3 92.8425 164.2Z" fill="#292B37"/>
<path d="M94.2425 165.9C94.2425 165.6 93.9425 165.5 93.7425 165.4C93.5425 165.3 93.7425 164.7 93.6425 164.6C93.5425 164.5 93.4425 164.8 93.1425 165.2C92.8425 165.6 93.1425 165.7 92.9425 165.9C92.8425 166.1 92.5425 166.1 92.5425 166.3C92.5425 166.5 92.6425 166.6 92.2425 166.7C91.8425 166.8 91.9425 166.9 91.7425 167C91.5425 167.1 91.6425 166.9 91.4425 166.8C91.3425 166.7 91.3425 167 91.0425 167.2C90.8425 167.4 90.5425 167.4 90.3425 167.5C90.1425 167.6 90.0425 167.7 89.8425 167.7C89.6425 167.7 89.5425 168.2 89.4425 168.7C89.4425 168.7 89.2425 169.1 89.3425 169.4C89.4425 169.6 89.5425 169.9 89.4425 170.1C89.3425 170.3 89.1425 170.7 89.0425 171C88.9425 171.2 88.7425 172.1 88.8425 172.5C88.9425 172.9 89.0425 173.1 89.3425 173.4C89.6425 173.6 89.7425 173.7 90.1425 173.7C90.5425 173.7 90.4425 173.6 90.5425 173.4C90.7425 173.2 90.7425 173.3 90.9425 173.2C91.2425 173.1 91.3425 173 91.5425 172.8C91.7425 172.6 91.8425 172.5 91.8425 172.2C91.9425 171.9 92.0425 171.7 92.1425 171.5C92.2425 171.3 92.3425 171.1 92.4425 170.9C92.5425 170.7 92.6425 170.7 92.6425 170.6C92.6425 170.4 92.6425 170.3 92.7425 170.1C92.8425 170 92.8425 169.9 92.8425 169.8C92.8425 169.7 92.9425 169.4 93.0425 169C93.2425 168.7 93.1425 168.5 93.0425 168.3C92.9425 168.1 93.2425 168.2 93.3425 168.3C93.4425 168.4 93.5425 168.2 93.6425 167.9C93.7425 167.6 93.4425 167.7 93.3425 167.7C93.2425 167.7 93.2425 167.7 93.3425 167.5C93.4425 167.4 93.7425 167.1 93.8425 166.9C93.9425 166.7 93.9425 167.1 94.1425 167.1C94.3425 167.1 94.2425 166.9 94.2425 166.6C94.1425 166.8 94.2425 166.2 94.2425 165.9Z" fill="#292B37"/>
<path d="M61.1425 152.3C61.2425 152.2 61.0425 152 60.9425 152C60.8425 152 60.8425 151.8 60.7425 151.7C60.6425 151.6 60.5425 151.9 60.5425 152.2C60.5425 152.4 60.5425 152.4 60.6425 152.6C60.6425 152.6 60.6425 152.7 60.7425 152.6C60.8425 152.5 60.7425 152.5 60.8425 152.4C60.9425 152.3 61.0425 152.4 61.1425 152.3Z" fill="#292B37"/>
<path d="M59.2425 153.8C59.1425 153.9 59.2425 154.2 59.4425 154.3C59.4425 154.3 59.6425 154.4 59.6425 154.2C59.7425 154 59.6425 153.9 59.5425 153.8C59.4425 153.6 59.3425 153.6 59.2425 153.8Z" fill="#292B37"/>
<path d="M66.5425 110C66.7425 109.9 66.7425 109.7 66.7425 109.7C66.7425 109.7 66.5425 109.6 66.5425 109.5C66.5425 109.4 66.3425 109.3 66.1425 109.4C65.9425 109.5 65.7425 109.8 65.6425 109.9C65.5425 110 65.4425 109.9 65.4425 109.9C65.4425 109.8 65.2425 109.9 65.2425 110C65.1425 110.1 65.0425 110.1 64.9425 110.2C64.8425 110.2 64.6425 110.3 64.5425 110.4C64.4425 110.5 64.7425 110.4 64.8425 110.3C64.9425 110.2 65.1425 110.2 65.2425 110.3C65.3425 110.3 65.2425 110.4 65.1425 110.6C65.1425 110.7 64.8425 111 64.8425 111.2C64.8425 111.4 64.5425 111.7 64.5425 111.7C64.5425 111.8 64.7425 111.8 64.8425 111.9C64.9425 112 64.9425 112 64.7425 112.1C64.6425 112.2 64.4425 112.4 64.3425 112.6C64.2425 112.8 63.8425 112.9 63.7425 113C63.6425 113.1 63.3425 113.7 63.1425 114C62.9425 114.3 63.0425 114.3 62.7425 114.4C62.4425 114.5 62.3425 114.4 62.2425 114.6C62.1425 114.7 62.5425 114.9 62.7425 114.9C62.9425 114.9 63.0425 114.8 63.2425 114.6C63.4425 114.5 63.4425 114.6 63.6425 114.7C63.8425 114.8 64.2425 114.9 64.5425 114.9C64.8425 114.9 64.8425 114.9 65.1425 114.9C65.1425 114.9 65.4425 114.7 65.4425 114.6C65.4425 114.5 65.3425 114.4 65.4425 114.3C65.5425 114.2 65.7425 114.2 65.9425 114.1C66.2425 114 66.1425 113.9 66.1425 113.8C66.1425 113.7 66.3425 113.7 66.5425 113.5C66.7425 113.4 66.6425 113.3 66.6425 113.1C66.5425 113 66.4425 113 66.3425 112.9C66.2425 112.8 66.1425 112.7 66.1425 112.6C66.0425 112.5 66.2425 112.4 66.2425 112.3C66.2425 112.2 66.0425 112.4 66.0425 112.3C66.0425 112.2 66.2425 111.9 66.3425 111.7C66.3425 111.5 66.2425 111.6 66.2425 111.5C66.1425 111.4 66.5425 111.2 66.6425 111.1C66.7425 111 66.9425 110.6 66.9425 110.5C66.9425 110.4 66.8425 110.4 66.7425 110.4C66.3425 110.2 66.4425 110.1 66.5425 110Z" fill="#292B37"/>
<path d="M61.9425 113.4C62.1425 113.4 62.1425 113.5 62.3425 113.5C62.5425 113.5 62.5425 113.4 62.7425 113.5C62.7425 113.5 62.8425 113.5 62.8425 113.4C62.8425 113.4 62.9425 113.2 63.0425 113.1C63.1425 113 63.4425 112.6 63.5425 112.5C63.6425 112.3 63.7425 112.3 63.9425 112.1C64.1425 112 64.2425 112 64.2425 111.9C64.3425 111.8 64.2425 111.7 64.2425 111.5C64.1425 111.4 64.0425 111.6 63.9425 111.5C63.8425 111.5 63.9425 111.3 63.9425 111.2C63.8425 111.1 63.8425 111.2 63.6425 111.2C63.4425 111.3 63.4425 111.4 63.3425 111.6C63.2425 111.8 63.1425 111.7 63.0425 111.6C62.9425 111.5 62.9425 111.5 62.7425 111.6C62.4425 111.7 62.7425 111.8 62.6425 112C62.5425 112.2 62.4425 112.3 62.2425 112.6C62.0425 112.9 62.0425 112.4 61.9425 112.5C61.8425 112.5 61.6425 112.9 61.5425 113C61.5425 113.1 61.5425 113.3 61.6425 113.4C61.6425 113.6 61.7425 113.4 61.9425 113.4Z" fill="#292B37"/>
<path d="M61.2425 113C61.0425 113.1 61.2425 113.2 61.3425 113.2C61.3425 113.2 61.5425 112.9 61.5425 112.8C61.5425 112.7 61.3425 112.9 61.2425 113Z" fill="#292B37"/>
<path d="M64.6425 110.2C64.6425 110.2 64.7425 110.1 64.7425 110C64.7425 109.9 64.6425 110 64.5425 110.1C64.4425 110.2 64.6425 110.3 64.6425 110.2Z" fill="#292B37"/>
<path d="M65.0425 110C65.1425 109.9 65.0425 109.8 65.0425 109.8C65.0425 109.8 64.8425 109.9 64.8425 110C64.8425 110.1 64.9425 110.1 65.0425 110Z" fill="#292B37"/>
<path d="M65.2425 109.9C65.2425 109.9 65.4425 109.9 65.5425 109.8C65.6425 109.7 65.8425 109.6 65.8425 109.4C65.9425 109.2 65.7425 109.3 65.6425 109.4C65.5425 109.5 65.4425 109.6 65.3425 109.6C65.2425 109.7 65.2425 109.8 65.2425 109.9C65.1425 109.9 65.1425 109.8 65.2425 109.9Z" fill="#292B37"/>
<path d="M67.1425 109.3C67.0425 109.3 66.9425 109.4 66.8425 109.6C66.9425 109.6 67.1425 109.4 67.1425 109.3C67.3425 109.3 67.2425 109.3 67.1425 109.3Z" fill="#292B37"/>
<path d="M68.1425 108.6C68.1425 108.7 68.1425 108.8 68.0425 109C67.9425 109.2 67.8425 109.2 67.9425 109.3C67.9425 109.3 68.1425 109.2 68.2425 109.1C68.3425 109 68.5425 108.9 68.6425 108.8C68.7425 108.7 68.6425 108.6 68.6425 108.5C68.6425 108.3 68.1425 108.5 68.1425 108.6Z" fill="#292B37"/>
<path d="M87.6425 104C87.7425 104.1 88.0425 104.1 88.1425 104.2C88.1425 104.2 88.3425 104.2 88.4425 104.1C88.5425 104.1 88.4425 104.1 88.2425 104C88.0425 104 87.8425 103.9 87.7425 103.8C87.6425 103.8 87.5425 103.9 87.6425 104Z" fill="#292B37"/>
<path d="M86.9425 103.6C86.8425 103.6 86.7425 103.5 86.6425 103.4C86.5425 103.2 86.4425 103.1 86.3425 103C86.2425 102.9 86.1425 103 85.8425 103C85.6425 103 85.5425 103.1 85.4425 103.2C85.3425 103.3 85.5425 103.4 85.4425 103.4C85.3425 103.4 85.4425 103.5 85.5425 103.6C85.6425 103.7 85.7425 103.6 85.8425 103.7C85.9425 103.8 85.8425 103.9 85.9425 103.9C86.0425 103.9 86.1425 103.9 86.2425 103.8C86.3425 103.7 86.2425 103.6 86.3425 103.7C86.4425 103.7 86.3425 103.9 86.6425 103.9C86.6425 103.9 86.9425 103.9 87.1425 103.8C87.3425 103.8 87.2425 103.8 87.3425 103.7C87.3425 103.7 87.1425 103.6 86.9425 103.6Z" fill="#292B37"/>
<path d="M85.5425 102.4C85.6425 102.5 85.4425 102.6 85.3425 102.7C85.2425 102.8 85.6425 102.7 85.8425 102.7H86.2425C86.3425 102.7 86.2425 102.6 86.3425 102.5C86.3425 102.4 86.6425 102.4 86.8425 102.4C87.0425 102.4 86.7425 102.3 86.6425 102.2C86.5425 102.1 86.8425 102 86.9425 101.9C87.1425 101.8 86.9425 101.7 86.8425 101.6C86.7425 101.5 87.0425 101.5 87.1425 101.5C87.3425 101.5 87.3425 101.5 87.3425 101.3C87.3425 101.2 87.4425 101.4 87.6425 101.4C87.8425 101.4 87.5425 101.3 87.5425 101.2C87.4425 101.1 87.2425 101.2 87.1425 101.2C87.0425 101.2 86.9425 101.1 86.8425 101.1C86.7425 101 86.7425 101.1 86.6425 101.2C86.5425 101.3 86.4425 101.4 86.4425 101.4C86.3425 101.4 86.1425 101.5 86.0425 101.5C85.9425 101.6 86.1425 101.7 86.0425 101.9C85.9425 102 85.8425 102 85.6425 102C85.4425 102 85.4425 102 85.3425 102.1C85.2425 102.2 85.5425 102.3 85.5425 102.4Z" fill="#292B37"/>
<path d="M67.7425 104.9C67.8425 104.7 67.3425 104.8 67.2425 104.8C67.1425 104.8 66.9425 105 66.6425 105C66.3425 105 66.4425 104.9 66.2425 104.9C66.0425 104.9 65.6425 105.1 65.4425 105.4C65.2425 105.6 64.7425 106 64.8425 106.1C64.9425 106.1 65.1425 106.3 65.4425 106.3C65.7425 106.3 65.7425 106.4 65.9425 106.4C66.1425 106.4 66.2425 106.3 66.3425 106.2C66.4425 106.1 66.5425 106.3 66.9425 106.1C66.9425 106.1 67.3425 105.9 67.4425 105.7C67.6425 105.5 67.6425 105.1 67.7425 104.9Z" fill="#292B37"/>
<path d="M60.7425 105.5C60.9425 105.4 61.8425 104.9 62.0425 104.8C62.2425 104.7 62.7425 104.6 62.9425 104.4C63.1425 104.3 63.1425 104.1 63.4425 104C63.6425 103.9 64.0425 103.9 64.2425 103.9C64.4425 103.8 64.9425 103.7 64.9425 103.7C64.9425 103.7 65.0425 103.8 65.2425 103.7C65.4425 103.6 65.8425 103.4 66.0425 103.4C66.2425 103.3 66.9425 103.2 67.0425 103.2C67.1425 103.2 67.4425 103.1 67.5425 103.2C67.5425 103.3 67.7425 103.4 67.9425 103.3C68.0425 103.3 68.5425 103.1 68.5425 103.1L68.6425 103.2C68.8425 103.1 69.1425 102.9 68.9425 102.9C68.7425 102.8 68.8425 102.7 69.0425 102.7C69.1425 102.6 69.6425 102.5 69.5425 102.6C69.4425 102.7 69.5425 102.8 69.8425 102.7C70.1425 102.5 71.0425 101.9 71.1425 101.9C71.2425 101.9 71.1425 102.1 71.3425 102C71.5425 101.9 71.8425 101.7 72.0425 101.6C72.1425 101.5 72.5425 101.5 72.5425 101.4C72.5425 101.3 72.9425 101.1 73.0425 101.1C73.1425 101.1 73.8425 100.8 73.9425 100.7C74.0425 100.6 74.4425 100.5 74.5425 100.4C74.7425 100.3 74.9425 100.2 75.2425 100.1C75.5425 100 75.6425 100 76.0425 99.9001C76.4425 99.7001 77.0425 99.5001 77.2425 99.5001C77.4425 99.5001 78.0425 99.5001 77.9425 99.3001C77.8425 99.1001 77.4425 99.0001 77.0425 98.9001C76.7425 98.8001 76.3425 98.9001 75.8425 98.8001C75.4425 98.8001 75.6425 98.8001 75.1425 98.7001C74.5425 98.6001 74.1425 98.7001 73.9425 98.8001C73.6425 98.8001 72.9425 99.0001 72.7425 99.1001C72.4425 99.2001 72.0425 99.4001 71.9425 99.5001C71.8425 99.7001 71.8425 99.7001 71.3425 99.8001C70.8425 99.9001 69.5425 100.5 69.3425 100.6C69.1425 100.7 68.6425 100.8 68.4425 101C68.1425 101.1 67.0425 101.5 66.5425 101.7C66.0425 102 65.4425 102.2 64.9425 102.4C64.5425 102.6 64.1425 102.8 63.5425 103.1C63.0425 103.4 62.1425 103.9 61.8425 104.1C61.5425 104.3 61.0425 105.1 60.8425 105.2C60.6425 105.3 60.6425 105.5 60.7425 105.5Z" fill="#292B37"/>
<path d="M78.1425 101.3C78.2425 101.2 78.1425 101.4 78.2425 101.4C78.3425 101.4 78.3425 101.6 78.1425 101.8C77.9425 102 78.2425 102 78.6425 101.9C78.6425 101.9 78.7425 101.7 78.6425 101.6C78.6425 101.5 78.9425 101.4 79.1425 101.3C79.3425 101.2 79.6425 101.1 79.8425 101C80.0425 100.9 78.7425 100.9 78.6425 100.9C78.5425 100.9 78.6425 101.2 78.6425 101.2C78.5425 101.3 78.5425 101.1 78.4425 101.1C78.3425 101.1 78.2425 101.2 78.2425 100.9C78.2425 100.7 78.1425 100.7 78.0425 100.8C77.9425 100.9 78.1425 101 77.9425 101.2C77.7425 101.5 78.0425 101.4 78.1425 101.3Z" fill="#292B37"/>
<path d="M79.5425 101.4C79.3425 101.4 79.1425 101.5 79.1425 101.7C79.1425 101.7 79.3425 101.7 79.4425 101.7C79.6425 101.7 79.6425 101.8 79.9425 101.6C80.2425 101.3 79.8425 101.4 79.5425 101.4Z" fill="#292B37"/>
<path d="M61.6425 122.6C61.5425 122.6 61.3425 122.8 61.4425 122.9C61.5425 123 61.4425 123 61.4425 123.2H61.5425C61.6425 123.2 61.7425 123 61.6425 122.8C61.5425 122.6 61.7425 122.6 61.6425 122.6Z" fill="#292B37"/>
<path d="M62.0425 123.2C62.0425 123.2 62.1425 123.3 62.3425 123.3C62.4425 123.3 62.4425 123.1 62.3425 123C62.2425 122.8 62.0425 123.1 62.0425 123.2Z" fill="#292B37"/>
<path d="M62.5425 122.4C62.5425 122.3 62.3425 122.4 62.1425 122.6C61.9425 122.8 62.0425 122.8 62.1425 122.8C62.1425 122.8 62.3425 122.8 62.4425 122.8C62.6425 122.7 62.6425 122.5 62.5425 122.4Z" fill="#292B37"/>
<path d="M63.0425 122.6C63.2425 122.5 63.2425 122.5 63.2425 122.4C63.3425 122.3 63.2425 122.2 63.1425 122.1C63.0425 122 62.7425 122.3 62.8425 122.5C62.9425 122.5 62.9425 122.7 63.0425 122.6Z" fill="#292B37"/>
<path d="M65.8425 122C65.7425 122 65.5425 122.2 65.6425 122.3C65.6425 122.3 65.7425 122.3 65.8425 122.2C65.9425 122.1 65.8425 122 65.8425 122Z" fill="#292B37"/>
<path d="M68.6425 126.1C68.5425 126.1 68.4425 126.3 68.4425 126.4C68.4425 126.4 68.5425 126.5 68.6425 126.3C68.8425 126.2 68.7425 126.1 68.6425 126.1Z" fill="#292B37"/>
<path d="M95.6425 145.7C95.5425 145.7 95.5425 145.9 95.6425 145.9C95.6425 145.9 95.8425 145.8 95.8425 145.7C95.8425 145.6 95.7425 145.7 95.6425 145.7Z" fill="#292B37"/>
<path d="M96.9425 145.1C96.7425 145.1 96.3425 145.3 96.5425 145.6C96.5425 145.6 96.5425 145.7 96.7425 145.8C96.8425 145.9 96.9425 145.8 97.1425 145.8C97.3425 145.7 97.3425 145.7 97.2425 145.5C97.1425 145.4 97.0425 145.1 96.9425 145.1Z" fill="#292B37"/>
<path d="M124.843 145.2C124.843 145 124.643 144.4 124.543 144.2C124.443 144 124.543 143.4 124.543 143.2C124.643 143 124.443 142.9 124.243 142.7C124.043 142.5 124.043 142.4 123.943 142.1C123.843 141.8 123.743 142 123.643 142C123.443 141.9 123.443 141.5 123.443 141.3C123.443 141.1 123.243 140.8 123.143 140.5C123.043 140.2 123.043 140.5 122.943 140.6C122.843 140.7 122.843 140.3 122.843 140C122.843 139.7 122.943 139.4 122.943 139.2C122.943 139 122.943 138.8 122.843 138.6C122.743 138.4 122.743 138.1 122.743 137.8C122.743 137.6 122.543 137.2 122.643 137.1C122.743 137 122.743 137.4 122.943 137.4C123.043 137.5 123.143 137.2 123.243 137.3C123.243 137.4 123.543 138.3 123.843 138.5C124.143 138.6 124.143 138.6 124.343 138.8C124.443 139 124.343 139.8 124.443 140C124.543 140.2 124.543 139.8 124.643 139.3C124.743 138.8 124.743 138.6 124.643 138.3C124.543 137.9 124.743 137.8 124.843 137.5C124.943 137.2 124.843 136.2 124.743 135.6C124.643 135 124.243 134 123.743 133.2C123.243 132.4 123.243 132.2 123.043 131.9C122.843 131.5 122.743 131.2 122.643 130.8C122.543 130.4 122.643 129.8 122.643 129.5C122.643 129.2 122.843 129.2 122.943 129.5C123.043 129.8 123.143 130.4 123.143 130.8C123.143 131.2 123.443 131.5 123.643 131.5C123.843 131.5 123.643 131 123.643 130.6C123.643 130.2 123.243 129.4 123.043 129.1C122.943 128.8 123.143 128.9 123.143 128.5C123.143 128.1 123.043 127.9 123.043 127.6C122.943 127.3 123.143 127.5 123.243 127.3C123.243 127.1 123.143 125.9 123.043 125.6C123.043 125.3 122.443 124 122.143 123.4C121.843 122.8 121.143 121.1 120.943 120.6C120.743 120.1 120.443 119.4 120.343 119.3C120.243 119.2 119.443 118.5 119.243 118.3C119.043 118.1 118.543 117.3 118.343 116.5C118.143 115.8 118.143 116.1 117.643 116C117.243 115.9 117.543 116.2 117.243 115.9C116.943 115.6 117.243 115.2 117.443 115.1C117.643 115 117.643 114.9 117.743 114.5C117.743 114.4 117.843 114.2 117.843 114.1C111.843 106.4 103.643 101.2 94.6425 98.8003C94.3425 98.8003 93.6425 98.7003 93.1425 98.7003C92.6425 98.6003 93.0425 98.9003 93.3425 99.2003C93.6425 99.5003 95.1425 99.4003 95.6425 99.7003C96.1425 99.9003 95.9425 100.1 95.5425 100.1C95.2425 100.1 94.8425 100.1 94.6425 100.4C94.5425 100.7 94.5425 100.8 94.2425 101C93.9425 101.1 93.0425 100.3 92.7425 100.1C92.5425 100 92.0425 100.3 91.6425 100.3C91.2425 100.3 91.9425 100.6 91.6425 100.8C91.3425 101 91.5425 100.7 91.3425 100.6C91.1425 100.6 90.9425 100.7 90.7425 100.6C90.5425 100.6 90.5425 100.8 90.4425 100.9C90.3425 101 90.5425 101 90.7425 101C90.9425 101.1 90.7425 101.3 90.5425 101.4C90.3425 101.5 90.6425 101.6 90.8425 101.7C91.0425 101.8 91.4425 101.7 91.5425 101.7C91.6425 101.8 91.2425 101.9 91.1425 102C90.9425 102.1 91.3425 102.2 91.5425 102.3C91.6425 102.4 91.8425 102.4 92.1425 102.5C92.4425 102.6 92.9425 102.9 92.9425 103.1C92.9425 103.2 92.1425 102.7 91.9425 102.6C91.7425 102.5 91.4425 102.6 91.3425 102.6C91.2425 102.5 91.2425 102.4 90.9425 102.4C90.6425 102.4 90.9425 102.6 91.0425 102.7C91.1425 102.8 91.5425 103 91.5425 103.1C91.5425 103.3 91.1425 103.1 91.0425 103C90.9425 102.9 90.6425 102.7 90.5425 102.5C90.4425 102.3 90.2425 102.4 90.2425 102.5C90.2425 102.6 90.5425 102.8 90.6425 102.9C90.7425 103 90.9425 103.2 91.1425 103.4C91.3425 103.6 91.6425 103.8 91.9425 103.9C92.2425 104 92.3425 103.9 92.7425 103.9C93.0425 103.9 93.2425 104.1 93.4425 104.2C93.6425 104.3 93.8425 104.3 93.7425 104.5C93.6425 104.7 93.1425 104.2 92.9425 104.1C92.8425 104 92.4425 104 92.2425 104C92.0425 104.1 92.6425 104.4 92.6425 104.8C92.6425 105.2 92.3425 104.9 92.3425 104.6C92.3425 104.3 91.9425 104 91.6425 103.8C91.4425 103.6 91.2425 103.6 91.1425 103.4C91.0425 103.2 90.8425 103.1 90.4425 102.9C90.1425 102.7 90.0425 102.5 89.9425 102.5C89.8425 102.5 89.7425 102.5 89.6425 102.4C89.5425 102.3 89.2425 102.1 89.0425 102.2C88.8425 102.3 89.3425 102.3 89.2425 102.6C89.2425 102.8 89.2425 102.9 89.2425 103C89.1425 103.1 89.2425 103.2 89.4425 103.3C89.6425 103.4 89.7425 103.5 90.0425 103.6C90.2425 103.7 90.6425 103.8 90.5425 103.9C90.5425 104.1 90.5425 104.1 90.1425 104C89.7425 103.9 89.8425 104 89.5425 103.9C89.1425 103.9 88.7425 103.9 88.3425 104C88.0425 104 88.0425 104.1 88.2425 104.2C88.4425 104.3 88.4425 104.4 88.4425 104.6C88.4425 104.8 88.1425 104.5 87.9425 104.5C87.7425 104.5 87.5425 104.6 87.2425 104.6C87.0425 104.7 86.9425 104.5 86.9425 104.4C86.8425 104.3 86.5425 104.5 86.4425 104.6C86.2425 104.7 86.0425 104.7 85.8425 104.8C85.6425 104.9 85.7425 104.5 85.7425 104.4C85.6425 104.3 85.6425 104.5 85.4425 104.4C85.2425 104.4 85.1425 104.3 85.1425 104.4C85.1425 104.5 85.4425 104.5 85.3425 104.6C85.3425 104.8 85.4425 104.8 85.5425 105C85.6425 105.3 85.4425 105.2 85.1425 105.3C84.8425 105.3 85.0425 105.2 85.0425 104.9C85.0425 104.6 84.8425 104.5 84.5425 104.5C84.2425 104.5 84.3425 104.5 84.1425 104.5C83.9425 104.5 83.7425 104.4 83.7425 104.5C83.7425 104.6 84.0425 104.6 84.0425 104.8C84.1425 104.9 84.0425 105.1 84.2425 105.2C84.3425 105.3 84.4425 105.5 84.5425 105.6C84.5425 105.8 84.1425 105.7 84.0425 105.6C83.9425 105.5 83.8425 105.6 83.7425 105.6C83.6425 105.7 83.5425 105.6 83.2425 105.6C83.0425 105.6 83.2425 105.7 82.9425 105.9C82.6425 106.1 82.6425 106.1 82.4425 106.1C82.2425 106.1 82.2425 106 81.9425 106.1C81.6425 106.2 81.7425 106.3 81.8425 106.5C81.9425 106.7 82.1425 106.8 82.1425 106.9C82.1425 107 81.6425 106.9 81.4425 106.7C81.2425 106.5 81.4425 106.2 81.4425 105.9C81.4425 105.6 81.2425 105.5 81.1425 105.3C81.0425 105.1 81.4425 105.3 81.6425 105.5C81.8425 105.7 81.9425 105.6 82.3425 105.6C82.7425 105.7 82.8425 105.5 82.9425 105.3C83.0425 105.1 82.8425 105 82.5425 104.9C82.2425 104.8 82.4425 104.8 82.3425 104.6C82.2425 104.4 82.1425 104.3 81.9425 104.3C81.7425 104.2 81.4425 104.2 81.1425 104.2C80.9425 104.2 80.8425 104.3 80.7425 104.2C80.6425 104.1 80.7425 104 80.6425 103.9C80.5425 103.9 80.3425 103.9 80.1425 104C79.9425 104.1 79.8425 104 79.9425 104C80.0425 103.9 80.2425 103.9 80.2425 103.7C80.2425 103.5 80.0425 103.6 79.7425 103.6C79.5425 103.6 79.5425 103.5 79.4425 103.5C79.3425 103.4 79.3425 103.6 79.1425 103.7C78.9425 103.8 78.8425 103.7 78.7425 103.7C78.6425 103.7 78.6425 103.5 78.4425 103.5C78.2425 103.5 77.9425 103.5 77.8425 103.6C77.7425 103.7 78.1425 103.7 78.0425 103.8C77.9425 103.9 77.8425 103.8 77.8425 103.8C77.7425 103.8 77.5425 103.8 77.3425 103.9C77.2425 104 76.7425 104 76.5425 104.1C76.3425 104.2 76.1425 104.1 76.0425 104.2C75.9425 104.3 76.2425 104.4 76.1425 104.5C76.0425 104.6 75.8425 104.7 75.6425 104.7C75.4425 104.7 75.7425 104.4 75.7425 104.3C75.7425 104.2 75.6425 104.3 75.4425 104.4C75.3425 104.5 75.1425 104.6 74.9425 104.7C74.8425 104.8 75.0425 105 74.8425 105.2C74.7425 105.4 74.6425 105 74.5425 105.1C74.3425 105.2 74.3425 105.5 74.1425 105.5C74.0425 105.5 73.9425 105.5 73.7425 105.7C73.5425 105.8 73.9425 105.8 73.9425 105.9C73.9425 106 73.7425 106 73.6425 106.1C73.5425 106.2 73.4425 106.2 73.2425 106.3C73.1425 106.4 73.0425 106.5 72.8425 106.6C72.6425 106.7 72.6425 106.8 72.5425 107C72.4425 107.2 72.3425 107.1 72.2425 107.3C72.1425 107.5 71.9425 107.5 71.8425 107.5C71.7425 107.5 71.6425 107.4 71.4425 107.5C71.1425 107.6 70.9425 107.6 70.6425 107.9C70.3425 108.1 70.5425 108.2 70.7425 108.2C70.9425 108.2 70.9425 108.3 70.8425 108.4C70.7425 108.5 70.5425 108.3 70.4425 108.3C70.3425 108.3 70.2425 108.4 70.1425 108.5C70.0425 108.6 70.2425 108.8 70.2425 109C70.2425 109.2 70.1425 109.1 70.0425 109C69.9425 109 69.7425 109.2 69.5425 109.3C69.3425 109.4 69.6425 109.4 69.6425 109.7C69.6425 110 69.2425 110 69.3425 110.1C69.4425 110.2 69.8425 110.3 70.0425 110.2C70.2425 110.2 70.2425 110.1 70.4425 110C70.6425 109.9 70.7425 109.9 70.7425 109.8C70.8425 109.7 70.9425 109.5 71.0425 109.4C71.1425 109.3 71.4425 109.2 71.5425 109.1C71.6425 109 71.7425 108.9 71.7425 109.1C71.7425 109.3 71.6425 109.6 71.4425 109.9C71.2425 110.2 71.4425 110.2 71.4425 110.5C71.4425 110.8 71.3425 111.2 71.3425 111.4C71.3425 111.7 71.6425 111.4 71.9425 111.3C72.2425 111.2 72.5425 110.9 72.7425 110.8C72.9425 110.6 73.1425 110.7 73.1425 110.5C73.1425 110.3 73.3425 110.2 73.4425 110.1C73.6425 110 73.5425 109.9 73.5425 109.7C73.6425 109.5 73.9425 109.3 73.9425 109.2C74.0425 109.1 74.3425 109 74.4425 108.9C74.5425 108.8 74.4425 108.7 74.3425 108.5C74.2425 108.3 74.3425 108.2 74.4425 108.1C74.5425 107.9 74.6425 107.4 74.6425 107.4C74.6425 107.4 75.0425 107.1 75.2425 107.1C75.4425 107 75.7425 107 75.8425 107C75.9425 106.9 75.8425 106.9 76.2425 106.8C76.6425 106.7 76.4425 106.6 76.5425 106.5C76.5425 106.4 76.6425 106.3 76.7425 106.2C76.8425 106.1 76.9425 106 77.0425 105.9C77.1425 105.8 77.1425 105.9 77.3425 105.9C77.5425 105.9 77.8425 106 77.9425 106.2C77.9425 106.3 77.6425 106.3 77.6425 106.5C77.5425 106.6 77.5425 106.6 77.3425 106.6C77.1425 106.6 77.0425 106.7 76.9425 106.8C76.8425 106.9 76.4425 107.1 76.2425 107.3C76.0425 107.5 76.0425 107.5 76.1425 107.6C76.1425 107.7 76.1425 107.8 76.1425 108C76.1425 108.2 75.9425 108.3 75.8425 108.5C75.7425 108.6 75.9425 108.9 75.9425 109C76.0425 109.2 76.2425 109.1 76.5425 109.1C76.8425 109 77.1425 108.9 77.4425 108.7C77.7425 108.6 78.5425 108.7 78.6425 108.8C78.8425 108.8 78.7425 108.9 78.6425 109.1C78.5425 109.2 77.9425 109.3 77.8425 109.3C77.6425 109.3 77.1425 109.2 76.9425 109.2C76.7425 109.3 76.5425 109.3 76.3425 109.3C76.1425 109.4 76.0425 109.5 76.0425 109.7C76.0425 109.8 76.1425 109.9 76.1425 109.9C76.1425 109.9 76.3425 110 76.5425 109.9C76.7425 109.9 76.6425 109.9 76.5425 110.1C76.4425 110.2 76.4425 110.4 76.2425 110.6C76.0425 110.8 76.0425 110.6 75.9425 110.5C75.8425 110.5 75.7425 110.4 75.6425 110.3C75.5425 110.2 75.5425 110.3 75.4425 110.4C75.3425 110.5 75.1425 110.6 75.0425 110.8C74.9425 110.9 74.9425 111.1 74.7425 111.2C74.5425 111.3 74.6425 111.5 74.5425 111.6C74.4425 111.8 74.2425 111.9 74.0425 112C73.8425 112.1 73.8425 112.3 73.8425 112.3C73.8425 112.4 73.5425 112.5 73.3425 112.4C73.2425 112.4 73.4425 112.3 73.4425 112.2C73.5425 112.1 73.2425 112.1 73.1425 112.2C72.9425 112.2 72.6425 112.3 72.5425 112.3C72.4425 112.3 71.8425 112.4 71.7425 112.4C71.6425 112.4 71.4425 112.5 71.3425 112.6C71.2425 112.7 71.3425 112.4 71.3425 112.3C71.3425 112.2 71.1425 112.2 71.0425 112.2C70.9425 112.2 70.6425 112.2 70.5425 112.2C70.4425 112.2 70.2425 112.3 70.1425 112.3C70.0425 112.3 69.8425 112.2 69.7425 112C69.6425 111.9 69.6425 111.6 69.6425 111.5C69.6425 111.4 69.5425 111.6 69.4425 111.6C69.3425 111.7 69.0425 111.8 69.0425 111.9C68.9425 112.1 69.2425 112.3 69.1425 112.5C69.0425 112.6 68.9425 112.6 68.7425 112.6C68.5425 112.6 68.3425 112.5 68.1425 112.4C68.0425 112.3 67.8425 112.6 67.7425 112.7C67.6425 112.8 67.3425 112.9 67.2425 112.9C67.1425 112.9 67.0425 112.9 66.9425 112.9C66.8425 113 66.8425 113 66.7425 113.3C66.6425 113.5 66.6425 113.6 66.5425 113.7C66.4425 113.8 66.4425 113.8 66.3425 113.8C66.1425 113.7 65.7425 113.9 65.4425 114C65.1425 114.1 64.8425 114.3 64.7425 114.4C64.6425 114.5 64.5425 114.5 64.4425 114.7C64.3425 114.9 64.2425 114.9 63.9425 114.8C63.6425 114.8 63.2425 114.6 63.1425 114.6C63.0425 114.6 62.9425 114.9 62.8425 115C62.7425 115.1 62.7425 115 62.6425 115C62.5425 115 62.5425 115.1 62.4425 115C62.3425 114.9 62.2425 114.9 62.2425 114.9C62.1425 115 61.9425 115 61.8425 115.1C61.8425 115.2 61.6425 115.3 61.5425 115.4C61.4425 115.5 61.4425 115.5 61.7425 115.6C61.9425 115.7 61.8425 115.7 61.9425 115.8C62.0425 116 62.0425 115.8 62.1425 115.8C62.2425 115.8 62.2425 115.8 62.3425 116C62.4425 116.2 62.4425 116.1 62.4425 116.2C62.4425 116.3 62.3425 116.4 62.3425 116.6C62.3425 116.8 62.3425 116.9 62.2425 117.1C62.2425 117.3 62.0425 117.3 62.1425 117.4C62.2425 117.5 62.2425 117.6 62.1425 117.7C62.0425 117.8 62.0425 117.7 62.0425 117.6C62.0425 117.5 61.9425 117.5 61.9425 117.5C61.8425 117.6 61.7425 117.6 61.7425 117.7C61.6425 117.8 61.7425 117.9 61.7425 117.9C61.7425 118.1 61.5425 118 61.3425 118.2C61.1425 118.3 61.2425 118.7 60.6425 118.6C60.1425 118.5 60.2425 118.4 60.1425 118.3C59.9425 118.3 59.7425 118.2 59.6425 118C59.5425 117.8 59.4425 117.8 59.3425 117.8C59.1425 117.8 58.8425 117.6 58.6425 117.7C58.4425 117.8 58.4425 117.8 58.3425 117.7C58.2425 117.6 58.1425 117.7 58.0425 117.9C57.9425 118.1 57.8425 118.4 57.7425 118.7C57.6425 119 57.2425 119.7 56.8425 120.3C56.4425 120.9 56.1425 121.2 56.1425 121.6C56.1425 121.9 56.0425 122.1 55.9425 122.3C55.8425 122.5 56.0425 122.5 56.2425 122.5C56.4425 122.5 56.6425 122.5 56.6425 122.6C56.7425 122.7 56.6425 123.3 56.7425 123.4C56.8425 123.6 57.0425 123.3 57.1425 123.2C57.2425 123.1 57.4425 123.1 57.6425 123.1C57.8425 123.1 58.0425 123.3 58.3425 123.3C58.7425 123.3 59.0425 123.3 59.2425 123.2C59.4425 123.1 59.5425 122.8 59.6425 122.8C59.7425 122.7 60.3425 122.4 60.5425 122.3C60.6425 122.2 60.7425 121.6 60.8425 121.3C60.9425 121 61.1425 121 61.4425 120.9C61.6425 120.8 62.1425 120.7 62.3425 120.6C62.5425 120.6 63.0425 120.1 63.0425 119.9C63.0425 119.7 63.1425 119.6 63.5425 119.4C63.9425 119.3 64.0425 119.4 64.3425 119.4C64.7425 119.4 64.8425 119.5 64.9425 119.4C65.1425 119.3 65.3425 119.3 65.5425 119.3C65.7425 119.3 66.1425 119.1 66.2425 119.1C66.3425 119.1 66.5425 119.2 66.6425 119.2C66.7425 119.2 66.6425 119 66.7425 118.9C66.8425 118.8 66.8425 119 67.0425 119.2C67.2425 119.4 67.2425 119.6 67.3425 119.8C67.4425 120 67.7425 120.2 67.8425 120.5C68.0425 120.8 67.8425 120.9 68.1425 120.9C68.3425 121 68.4425 121 68.7425 121.3C69.0425 121.6 69.3425 122.1 69.4425 122.4C69.4425 122.7 69.1425 123.3 68.9425 123.5C68.7425 123.7 69.0425 123.7 69.2425 123.6C69.5425 123.5 69.6425 123.5 69.7425 123.3C69.8425 123.1 69.8425 122.9 69.9425 122.8C70.0425 122.7 70.3425 122.6 70.3425 122.4C70.3425 122.2 70.1425 122.2 70.0425 122.1C69.9425 122 70.2425 121.7 70.3425 121.6C70.4425 121.5 70.7425 121.9 70.8425 122.1C70.9425 122.3 71.2425 122 71.2425 121.8C71.1425 121.7 71.0425 121.3 70.7425 121.2C70.5425 121.1 70.3425 121.1 70.2425 120.9C70.1425 120.7 70.0425 120.5 69.9425 120.3C69.8425 120.1 69.2425 120 69.1425 119.9C69.0425 119.8 69.0425 119.1 69.1425 118.9C69.1425 118.7 68.8425 118.8 68.6425 118.7C68.4425 118.6 68.5425 118.4 68.6425 118.4C68.7425 118.4 68.8425 118 68.7425 117.9C68.6425 117.8 68.8425 117.8 69.0425 117.9C69.3425 118 69.1425 118.1 69.0425 118.2C68.9425 118.4 69.2425 118.5 69.3425 118.5C69.4425 118.5 69.5425 118.3 69.5425 118.1C69.5425 117.9 69.6425 118.1 69.8425 118.3C70.0425 118.5 69.9425 118.6 70.1425 118.8C70.2425 119 70.0425 119.1 69.9425 119.3C69.8425 119.5 70.0425 119.4 70.2425 119.5C70.5425 119.6 70.3425 119.6 70.6425 119.7C70.9425 119.8 71.0425 119.9 71.2425 120C71.4425 120.1 71.7425 120.2 71.9425 120.4C72.1425 120.6 72.0425 120.7 72.0425 121C71.9425 121.3 72.0425 121.5 72.0425 122C72.0425 122.4 72.1425 122.1 72.3425 122.4C72.5425 122.7 72.5425 122.8 72.6425 123C72.7425 123.2 72.7425 123.2 72.9425 123.3C73.0425 123.3 73.4425 123.3 73.4425 123.5C73.4425 123.7 73.1425 123.5 72.8425 123.6C72.5425 123.7 72.6425 123.7 72.5425 124C72.5425 124.3 72.6425 124.1 72.7425 124.5C72.9425 124.9 72.7425 124.8 72.8425 124.8C72.9425 124.8 73.0425 124.7 73.1425 124.9C73.2425 125.1 73.2425 125.1 73.4425 124.9C73.6425 124.8 73.7425 124.8 73.7425 124.7C73.7425 124.6 73.7425 124.5 73.9425 124.5C74.1425 124.6 74.1425 124.4 74.1425 124.2C74.1425 124 74.1425 123.9 74.0425 124C73.9425 124 73.8425 124.4 73.6425 124.2C73.4425 124.1 74.0425 123.9 74.1425 123.9C74.2425 123.8 74.2425 123.7 74.4425 123.8C74.6425 123.8 74.7425 123.8 74.7425 123.5C74.6425 123.2 74.4425 123.1 73.9425 122.6C73.4425 122.1 74.0425 122 74.4425 121.8C74.8425 121.6 75.7425 121.5 75.8425 121.5C75.9425 121.5 75.9425 121.8 75.7425 121.9C75.5425 122 75.5425 122.2 75.5425 122.3C75.5425 122.4 75.8425 122.5 75.8425 122.5C75.9425 122.5 76.0425 122.5 76.1425 122.8C76.2425 123.1 75.9425 123.3 75.8425 123.3C75.7425 123.3 75.6425 123.7 75.6425 123.8C75.6425 124 76.1425 123.8 76.3425 123.8C76.5425 123.8 76.4425 124 76.5425 124.3C76.6425 124.5 76.7425 124.5 76.7425 124.8C76.8425 125 76.5425 125 76.8425 125.1C77.1425 125.2 77.2425 125.1 77.4425 125.1C77.7425 125.1 78.4425 125.3 78.6425 125.2C78.8425 125.1 79.0425 124.9 79.2425 124.8C79.4425 124.7 79.7425 125.2 79.9425 125.3C80.2425 125.4 80.6425 125.2 80.7425 125.1C80.8425 125 80.9425 125 81.2425 125C81.5425 125 81.6425 125 81.7425 124.8C81.7425 124.6 81.9425 124.5 82.0425 124.8C82.0425 125.1 81.9425 125 81.8425 125.2C81.7425 125.4 81.8425 125.5 81.9425 125.8C82.0425 126.1 81.9425 126.4 81.9425 126.6C81.9425 126.8 81.8425 126.9 81.8425 127.1C81.7425 127.3 81.7425 127.2 81.6425 127.4C81.5425 127.6 81.4425 127.8 81.5425 128.1C81.6425 128.4 81.3425 128.6 81.1425 128.9C80.9425 129.2 80.7425 129.4 80.6425 129.4C80.4425 129.4 80.0425 129.3 79.8425 129.2C79.7425 129.1 79.3425 128.7 79.1425 128.7C78.8425 128.7 77.8425 129 77.4425 129.2C77.0425 129.4 76.3425 129 76.1425 128.9C75.8425 128.7 75.5425 128.8 75.2425 128.9C74.9425 129 74.8425 128.6 74.5425 128.4C74.2425 128.2 73.9425 128.3 73.6425 128.3C73.3425 128.3 73.3425 127.9 73.2425 127.8C73.1425 127.6 72.3425 127.6 71.9425 127.6C71.5425 127.6 71.5425 127.6 71.5425 127.9C71.5425 128.1 71.4425 128.7 71.3425 129C71.2425 129.3 70.6425 129.4 70.5425 129.4C70.3425 129.4 69.9425 129.1 69.7425 129.1C69.5425 129.1 69.3425 129.1 69.2425 129C69.1425 128.9 69.0425 128.9 68.7425 128.8C68.4425 128.7 68.4425 128.3 68.4425 128C68.4425 127.7 68.0425 127.6 67.6425 127.3C67.2425 127 66.7425 127.3 66.6425 127.4C66.5425 127.5 66.0425 127.3 65.6425 126.8C65.2425 126.3 65.9425 126.2 65.8425 126C65.8425 125.8 66.1425 125.7 66.3425 125.5C66.5425 125.3 66.3425 125.1 66.1425 124.9C65.9425 124.7 66.2425 124.4 66.5425 124.1C66.8425 123.8 66.2425 123.9 66.1425 123.8C66.0425 123.8 66.2425 123.5 66.1425 123.4C66.0425 123.3 65.8425 123.4 65.8425 123.6C65.8425 123.8 65.5425 123.8 65.3425 123.9C65.1425 124 64.9425 124.2 64.8425 124.1C64.6425 124 64.7425 123.9 64.4425 123.8C64.1425 123.7 63.7425 123.9 63.5425 124C63.3425 124.1 63.2425 124 63.2425 123.9C63.1425 123.7 63.0425 123.7 62.5425 123.6C62.0425 123.5 61.5425 123.6 61.0425 123.7C60.6425 123.8 59.7425 124.1 59.3425 124.2C59.0425 124.4 58.4425 124.2 58.0425 124.1C57.6425 123.9 57.4425 123.7 57.3425 123.5C57.2425 123.2 57.2425 123.4 57.0425 123.6C56.8425 123.8 56.8425 123.8 56.6425 124.1C56.4425 124.4 56.3425 124.4 56.1425 124.6C55.9425 124.8 55.7425 124.8 55.6425 124.9C55.5425 125 55.1425 125.1 54.9425 125.2C54.7425 125.3 54.8425 125.7 54.6425 125.9C54.4425 126.1 54.2425 126.4 54.1425 126.7C54.0425 127 54.0425 127 54.1425 127.3C54.2425 127.5 54.0425 127.5 53.9425 127.5C53.8425 127.5 53.7425 127.5 53.5425 127.8C53.3425 128.1 53.1425 128.1 52.9425 128.1C52.7425 128.1 52.8425 128.3 52.5425 128.4C52.2425 128.6 52.0425 128.5 51.8425 128.7C51.8425 128.7 51.3425 129.1 51.0425 129.4C50.7425 129.7 50.2425 130.4 50.0425 130.7C49.8425 131 49.5425 131.5 49.4425 131.6C49.3425 131.7 49.0425 132.2 48.8425 132.5C48.5425 132.8 48.4425 132.9 48.4425 133.1C48.4425 133.3 48.7425 134 48.6425 134C48.6425 134.1 48.4425 134.6 48.4425 134.8C48.4425 135.1 48.3425 135.3 48.2425 135.6C48.1425 135.9 48.0425 136.1 48.0425 136.3C48.0425 136.5 47.9425 136.7 47.7425 136.8C47.5425 136.9 47.6425 137.3 47.5425 137.5C47.3425 137.7 47.2425 137.5 47.1425 137.7C47.0425 137.9 47.1425 138.2 47.1425 138.5C47.1425 138.8 47.0425 139.2 47.0425 139.3C47.0425 139.4 47.1425 139.8 47.1425 140.2C47.1425 140.6 47.3425 140.7 47.4425 140.9C47.5425 141.1 47.5425 141.3 47.6425 141.6C47.7425 141.8 47.7425 142.1 47.7425 142.4C47.7425 142.7 48.0425 142.7 48.2425 143C48.4425 143.3 48.1425 143.7 48.2425 144C48.2425 144.2 48.3425 144.8 48.3425 145.1C48.3425 145.4 48.8425 145.6 49.1425 146.1C49.4425 146.5 49.7425 146.9 50.1425 147.6C50.5425 148.3 50.8425 148.2 51.2425 148.3C51.5425 148.4 51.6425 148.1 51.9425 148C52.2425 147.8 52.1425 148.1 52.3425 148.2C52.6425 148.3 52.8425 148.3 53.0425 148.3C53.2425 148.3 53.2425 148.2 53.4425 148.2C53.6425 148.2 53.6425 148.4 53.8425 148.7C54.0425 149 54.1425 148.8 54.6425 148.9C55.1425 149 55.2425 148.9 55.5425 148.8C55.8425 148.7 56.6425 148.3 56.7425 148.3C56.8425 148.3 57.0425 148.2 57.3425 148.2C57.6425 148.2 57.5425 148.3 57.5425 148.5C57.6425 148.7 57.7425 148.5 58.0425 148.5C58.2425 148.5 58.3425 148.5 58.5425 148.7C58.7425 148.9 58.9425 149.4 59.0425 149.8C59.1425 150.1 59.2425 150.3 59.5425 150.4C59.7425 150.5 60.1425 150.3 60.5425 150.3C60.9425 150.3 61.1425 150.2 61.4425 150.4C61.6425 150.6 61.7425 151.2 61.7425 151.3C61.8425 151.4 62.1425 151.3 62.2425 151.5C62.3425 151.7 62.0425 152 62.0425 152.3C61.9425 152.5 62.0425 152.8 62.0425 153.1C62.0425 153.4 62.0425 153.6 61.9425 153.9C61.9425 154.2 61.9425 154.2 61.6425 154.4C61.3425 154.5 61.4425 154.6 61.5425 154.8C61.6425 155 61.8425 155.1 61.9425 155.4C62.0425 155.7 61.7425 155.7 61.8425 155.8C61.9425 156 62.0425 155.9 62.1425 155.9C62.3425 155.9 62.4425 156.1 62.4425 156.3C62.3425 156.5 62.6425 156.7 62.7425 156.9C62.8425 157.1 63.0425 157.1 63.4425 157.2C63.7425 157.3 64.0425 157.5 64.1425 157.8C64.2425 158.1 64.1425 158.1 64.2425 158.4C64.3425 158.6 64.2425 158.8 64.2425 159C64.2425 159.1 64.4425 159.3 64.6425 159.5C64.8425 159.7 64.7425 159.7 64.7425 159.9C64.7425 160.1 64.8425 160 64.9425 160.2C65.0425 160.4 65.1425 160.7 65.0425 160.8C64.9425 160.9 64.9425 161.2 65.0425 161.4C65.1425 161.5 65.3425 161.6 65.3425 161.7C65.4425 161.9 65.7425 162.9 65.8425 163C65.9425 163.2 65.9425 163.4 65.7425 163.6C65.6425 163.7 65.2425 164 65.1425 164.3C65.0425 164.6 65.1425 164.7 65.2425 165C65.3425 165.3 65.1425 165.2 65.0425 165.5C64.9425 165.8 64.9425 165.8 64.9425 166.1C64.9425 166.4 64.9425 166.4 65.1425 167C65.3425 167.6 65.6425 167.5 65.8425 167.8C66.1425 168.1 65.9425 168.2 66.0425 168.4C66.1425 168.6 66.6425 169 67.0425 169.6C67.5425 170.2 67.3425 170.1 67.3425 170.3C67.3425 170.5 67.3425 170.5 67.6425 170.9C67.8425 171.3 68.2425 171.6 68.2425 172.1C68.1425 172.5 68.4425 172.4 68.5425 172.8C68.6425 173.2 69.3425 173.6 69.7425 173.9C70.1425 174.3 70.3425 174.4 70.7425 175.1C71.1425 175.7 71.5425 175.9 71.6425 176C71.7425 176.1 71.7425 176.2 71.5425 176.2C71.3425 176.2 71.3425 176.3 71.4425 176.5C71.5425 176.6 71.6425 176.8 71.7425 177C71.8425 177.3 72.0425 177.1 72.2425 177.2C72.4425 177.3 72.7425 177.4 72.9425 177.4C73.1425 177.4 73.7425 177.3 74.0425 177.3C74.4425 177.3 74.5425 177.5 75.0425 177.5C75.5425 177.5 75.4425 177.5 75.9425 177.5C76.5425 177.6 77.8425 177.3 78.0425 177C78.2425 176.8 78.7425 176.4 79.1425 176.2C79.5425 176 80.2425 175.6 80.4425 175.5C80.6425 175.4 80.5425 175.2 80.5425 175C80.5425 174.7 80.7425 174.6 80.8425 174.3C80.9425 174 81.0425 173.9 80.9425 173.6C80.8425 173.3 81.1425 173.4 81.4425 173.2C81.7425 173 82.5425 172.8 82.8425 172.7C83.0425 172.6 83.0425 172.6 82.9425 172.4C82.8425 172.2 83.0425 171.7 83.0425 171.4C83.0425 171.1 83.0425 171 82.9425 171.1C82.8425 171.2 82.7425 171.1 82.6425 170.7C82.4425 170.3 82.4425 170.2 82.4425 170C82.5425 169.8 83.3425 169.7 83.5425 169.5C83.8425 169.3 83.8425 169.3 84.0425 169C84.3425 168.8 84.5425 168.6 84.6425 168.5C84.7425 168.4 85.0425 168.3 85.3425 168.2C85.6425 168 85.8425 167.9 85.9425 167.8C86.0425 167.7 86.1425 167.9 86.3425 167.8C86.5425 167.7 86.9425 167.4 87.3425 167.2C87.7425 167 87.6425 166.6 87.3425 166.4C87.1425 166.2 87.1425 166.1 87.1425 165.7C87.1425 165.3 87.1425 165.4 87.0425 165.4C86.9425 165.4 86.9425 165.3 86.9425 165.1C87.0425 164.9 86.9425 164.7 86.9425 164.5C86.8425 164.3 86.8425 164.1 86.8425 163.9C86.8425 163.6 86.6425 163.4 86.4425 163.3C86.2425 163.2 86.1425 163 86.1425 162.7C86.1425 162.5 85.7425 162.6 85.6425 162.4C85.5425 162.2 85.6425 161.6 85.7425 161.4C85.8425 161.2 85.6425 160.9 85.4425 160.8C85.2425 160.7 85.3425 160.2 85.5425 159.8C85.7425 159.4 86.0425 159.3 86.2425 159.1C86.5425 158.9 86.8425 158.4 87.0425 158.3C87.2425 158.2 87.4425 157.9 87.3425 157.6C87.3425 157.3 87.5425 157.3 87.7425 157.2C87.9425 157.1 87.9425 156.9 87.9425 156.7C87.9425 156.5 88.0425 156.5 88.3425 156.4C88.6425 156.2 88.9425 155.9 89.1425 155.6C89.2425 155.3 89.7425 155.1 90.2425 154.8C90.6425 154.5 90.8425 154.2 90.8425 154.1C90.8425 153.9 91.0425 153.7 91.4425 153.6C91.8425 153.5 92.3425 153.2 92.5425 152.9C92.7425 152.6 93.0425 152 93.2425 151.6C93.4425 151.2 93.9425 150.6 93.8425 150.2C93.7425 149.8 94.0425 149.4 94.3425 149.2C94.6425 148.9 94.4425 148.7 94.5425 148.4C94.6425 148 94.9425 148.2 95.0425 147.9C95.1425 147.7 94.9425 147.3 94.9425 147.2C94.9425 147.1 95.3425 146.9 95.4425 146.8C95.5425 146.7 95.4425 146.5 95.2425 146.4C95.0425 146.3 95.1425 146.1 95.0425 145.8C94.9425 145.5 94.7425 145.5 94.5425 145.7C94.3425 145.8 94.1425 145.9 93.9425 146.1C93.7425 146.2 93.6425 146.2 93.4425 146.3C93.2425 146.4 92.8425 146.4 92.0425 146.5C91.3425 146.6 90.2425 146.6 89.6425 146.7C89.0425 146.8 88.9425 146.6 88.7425 146.4C88.5425 146.2 88.6425 145.9 88.5425 145.5C88.5425 145.1 88.3425 145 88.1425 145.1C87.8425 145.1 87.7425 144.9 87.5425 144.4C87.3425 144 87.0425 143.8 86.7425 143.7C86.4425 143.5 85.7425 143.6 85.5425 143.5C85.3425 143.4 85.4425 143.2 85.3425 143C85.2425 142.8 85.1425 142.1 85.0425 141.7C84.9425 141.3 84.5425 141 84.2425 140.9C83.9425 140.8 83.9425 140.3 83.9425 139.9C83.9425 139.5 84.0425 139.1 83.9425 139C83.9425 138.9 83.8425 138.6 83.9425 138.5C84.0425 138.4 83.8425 138.2 83.6425 138.2C83.4425 138.2 83.5425 137.7 83.4425 137.5C83.3425 137.3 83.1425 137.1 82.9425 137C82.7425 136.9 82.4425 136.9 82.3425 136.7C82.2425 136.5 82.5425 136.4 82.6425 136.4C82.7425 136.4 82.3425 136.1 82.1425 135.9C81.9425 135.7 81.9425 135.7 81.8425 135.5C81.7425 135.4 81.7425 135.3 81.7425 135.1C81.6425 134.9 81.7425 134.9 81.6425 134.7C81.5425 134.5 81.6425 134.4 81.4425 134.1C81.3425 133.8 81.2425 133.7 81.1425 133.6C81.0425 133.5 80.9425 133.3 80.9425 133C80.8425 132.7 80.7425 132.6 80.5425 132.5C80.4425 132.4 80.2425 131.9 80.0425 131.7C79.9425 131.5 79.9425 131.4 80.1425 131.5C80.2425 131.6 80.3425 131.6 80.6425 131.8C80.9425 131.9 80.7425 132.1 80.9425 132.4C81.1425 132.7 81.2425 132.6 81.4425 132.5C81.6425 132.4 81.4425 131.8 81.5425 131.6C81.6425 131.4 81.8425 131.4 81.8425 131.6C81.8425 131.8 81.5425 132 81.7425 132.3C81.8425 132.6 82.1425 132.8 82.5425 133.2C82.8425 133.6 83.4425 133.9 83.6425 134.5C83.8425 135.1 83.6425 135.3 83.7425 135.6C83.8425 135.9 84.2425 135.7 84.6425 135.9C85.0425 136.1 84.8425 136.2 84.9425 136.4C85.0425 136.6 85.2425 136.7 85.3425 136.9C85.4425 137.1 85.1425 137.8 85.2425 138.2C85.3425 138.6 85.7425 139 86.1425 139.2C86.5425 139.5 87.1425 140.3 87.2425 140.5C87.3425 140.7 87.6425 141 87.7425 141.5C87.8425 141.9 88.4425 142.5 88.5425 142.7C88.6425 143 88.3425 142.8 88.2425 142.8C88.1425 142.8 88.0425 143.3 88.1425 143.5C88.2425 143.7 88.4425 143.9 88.7425 144.2C88.9425 144.5 88.8425 144.9 89.0425 145.2C89.2425 145.5 89.5425 145.4 89.9425 145.2C90.3425 145 90.5425 144.8 90.7425 144.7C90.9425 144.6 91.3425 144.7 91.7425 144.5C92.0425 144.3 92.4425 144.1 92.7425 144.1C93.1425 144.1 93.2425 143.9 93.5425 143.7C93.8425 143.5 94.1425 143.3 94.5425 143.1C94.9425 142.9 95.4425 142.8 95.6425 142.7C95.8425 142.6 95.9425 142.4 96.1425 142.1C96.2425 141.8 96.4425 141.8 96.6425 141.7C96.8425 141.6 96.9425 141.6 97.0425 141.5C97.1425 141.5 97.2425 141.4 97.5425 141.2C97.8425 141 98.1425 141.1 98.4425 140.9C98.6425 140.7 98.5425 140.6 99.0425 140.5C99.5425 140.4 99.3425 140.4 99.3425 140.1C99.3425 139.8 99.3425 139.8 99.5425 139.5C99.7425 139.3 100.043 139.6 100.243 139.6C100.443 139.6 100.343 139.5 100.343 139.1C100.343 138.8 100.043 138.4 99.9425 138.2C99.8425 138 99.8425 137.9 100.043 137.8C100.243 137.7 100.343 137.9 100.443 138C100.643 138 100.543 137.6 100.443 137.3C100.343 137 100.643 136.9 100.743 136.6C100.843 136.3 100.743 136.3 100.543 136C100.343 135.7 100.143 135.3 99.9425 135.3C99.7425 135.3 98.5425 135.1 98.4425 135C98.3425 134.9 98.2425 134.2 98.1425 133.7C98.0425 133.2 97.6425 133.4 97.4425 133.5C97.2425 133.6 97.1425 134.3 96.7425 134.8C96.3425 135.3 96.0425 134.9 95.7425 135C95.4425 135.1 94.9425 135.2 94.7425 135C94.5425 134.8 94.8425 134.7 94.8425 134.3C94.8425 134 94.5425 133.9 94.3425 134C94.1425 134.2 94.0425 134.5 93.9425 134.5C93.8425 134.5 93.8425 134 94.0425 133.9C94.2425 133.8 94.1425 133.7 94.0425 133.4C93.9425 133.2 93.8425 133.4 93.5425 133.3C93.3425 133.2 93.6425 133.1 93.5425 132.9C93.4425 132.7 93.3425 132.6 93.0425 132.6C92.8425 132.6 92.8425 132.4 92.7425 132.1C92.5425 131.7 92.5425 131.8 92.2425 131.6C91.9425 131.3 91.8425 131.2 91.7425 130.9C91.6425 130.6 91.6425 130.6 91.7425 130.6C91.8425 130.6 92.1425 130.5 92.0425 130.4C91.9425 130.3 92.1425 129.9 92.3425 130C92.6425 130.1 92.3425 130.3 92.4425 130.4C92.5425 130.5 92.8425 130.2 93.1425 130.3C93.4425 130.4 93.3425 130.8 93.5425 131.1C93.7425 131.5 93.8425 131.9 94.0425 132C94.2425 132.2 94.4425 132.1 94.7425 132.2C95.0425 132.4 95.1425 132.6 95.4425 132.7C95.7425 132.8 96.2425 132.7 96.5425 132.7C96.9425 132.7 97.0425 132.2 97.3425 132.2C97.5425 132.2 97.8425 132.5 98.0425 132.8C98.2425 133.2 98.6425 133.2 98.9425 133.3C99.2425 133.4 99.3425 133.3 99.7425 133.5C100.143 133.6 100.743 133.7 101.143 133.7C101.543 133.7 101.543 133.5 101.743 133.3C102.043 133.2 102.343 133.1 102.643 133.1C102.943 133.1 103.043 133.1 103.443 133C103.843 132.9 104.243 132.7 104.443 132.7C104.643 132.7 104.743 133 104.843 133.1C104.943 133.2 105.043 133.2 105.143 133.3C105.143 133.4 105.443 133.7 105.743 133.8C105.943 133.9 106.143 134 106.343 134.1C106.543 134.2 106.443 134.2 106.643 134.3C106.843 134.4 107.143 134.1 107.343 134.2C107.443 134.3 107.243 134.4 107.043 134.7C106.843 135 106.943 135.1 107.043 135.2C107.143 135.3 107.443 135.3 107.543 135.4C107.743 135.5 107.743 135.7 107.943 135.7C108.143 135.8 108.143 135.5 108.243 135.3C108.343 135.1 108.443 135.2 108.543 135C108.643 134.8 108.443 134.5 108.343 134.4C108.243 134.2 108.543 134.2 108.643 134.3C108.743 134.3 108.743 134.7 108.843 134.8C108.943 134.9 108.743 135.1 108.743 135.3C108.743 135.5 108.943 135.6 108.943 135.9C109.043 136.2 109.243 136.9 109.343 137.5C109.443 138.1 109.743 138.3 109.843 138.5C109.943 138.7 109.943 139 110.143 139.2C110.243 139.4 110.443 139.6 110.643 139.9C110.743 140.2 111.143 140.5 111.243 140.8C111.443 141.2 111.443 141.4 111.643 141.7C111.843 142 112.043 142.5 112.343 142.8C112.643 143.1 112.943 143.6 112.943 143.8C113.043 144 113.243 144.3 113.443 144.6C113.643 144.9 113.843 144.7 114.043 144.6C114.243 144.5 114.143 144.3 114.243 144C114.343 143.7 114.443 143.9 114.543 143.8C114.643 143.6 114.843 143.5 114.743 143.3C114.643 143.1 114.643 142.9 114.843 142.7C115.043 142.5 115.043 142.6 115.043 142.4C115.043 142.2 114.943 142 114.843 141.7C114.743 141.5 115.043 141 115.043 140.8C115.043 140.7 115.043 140.3 114.943 140.1C114.943 139.9 114.943 139.7 114.843 139.5C114.743 139.3 114.743 139.3 114.743 139C114.743 138.7 114.643 138.5 114.643 138.3C114.643 138.1 114.843 137.9 115.043 137.6C115.243 137.3 115.243 137 115.243 136.8C115.243 136.6 115.443 136.6 115.543 136.6C115.643 136.5 115.643 136.3 115.743 136.1C115.743 135.9 116.043 135.5 116.043 135.3C116.143 135.1 116.143 134.9 116.243 134.7C116.343 134.5 116.443 134.4 116.343 134.3C116.243 134.2 116.143 134 116.343 134C116.443 134 116.543 134.1 116.543 133.9C116.543 133.7 116.743 133.6 116.643 133.4C116.643 133.1 116.643 133 116.643 132.6C116.643 132.3 116.843 132.2 116.943 132.2C117.043 132.2 117.043 132.1 117.143 131.9C117.243 131.7 117.343 131.8 117.443 131.6C117.543 131.5 117.843 131.2 117.943 131.1C118.143 131 118.143 131.2 118.243 131.4C118.343 131.6 118.443 131.3 118.643 131.4C118.843 131.5 119.043 132 119.143 132.1C119.243 132.3 119.243 132 119.443 132C119.543 132.1 119.543 132.3 119.643 132.5C119.743 132.7 119.843 132.7 119.943 132.9C120.043 133.2 120.043 133 120.143 133C120.243 133 120.443 133.4 120.543 133.6C120.643 133.9 120.643 134.7 120.743 135.1C120.943 135.4 120.943 135.6 121.243 135.5C121.443 135.4 121.343 135.1 121.343 134.9C121.343 134.7 121.543 134.5 121.543 134.4C121.543 134.3 121.643 134 121.743 134.2C121.843 134.4 122.143 135.3 122.243 135.5C122.343 135.7 122.743 136 122.743 136.4C122.743 136.8 122.843 137.2 123.043 137.4C123.243 137.6 123.343 137.9 123.343 138.4C123.443 138.9 123.343 139.3 123.243 139.4C123.143 139.5 123.043 139.8 123.143 140C123.243 140.2 123.543 140.6 123.743 141C123.843 141.3 124.043 141.3 124.243 141.7C124.443 142 124.343 142.7 124.443 142.9C124.543 143.2 124.943 144.2 125.243 144.6C124.843 146 124.843 145.3 124.843 145.2ZM77.3425 122.9C77.0425 123 76.7425 123 76.4425 123C76.1425 123 75.9425 123 75.9425 123C75.8425 123 75.9425 122.8 76.2425 122.8C76.5425 122.8 76.5425 122.8 76.7425 122.5C76.9425 122.3 77.1425 122.4 77.2425 122.3C77.3425 122.2 77.4425 122.2 77.3425 122.3C77.2425 122.4 77.2425 122.5 77.3425 122.5C77.6425 122.7 77.6425 122.8 77.3425 122.9ZM85.4425 122.1C85.3425 122.3 85.0425 122.5 84.7425 122.5C84.4425 122.5 84.5425 122.3 84.2425 122.4C83.9425 122.5 83.7425 122.6 83.3425 122.5C82.9425 122.4 82.7425 122.2 82.4425 122.1C82.1425 122 81.3425 121.8 81.1425 121.8C80.8425 121.8 80.3425 121.7 80.1425 121.7C79.9425 121.7 79.7425 121.7 79.6425 121.9C79.4425 122.1 79.2425 122.2 78.8425 122.2C78.4425 122.2 78.0425 122.3 77.9425 122.3C77.7425 122.3 77.7425 122.3 77.7425 122.1C77.6425 121.9 77.7425 121.8 77.6425 121.8C77.5425 121.8 77.5425 121.7 77.5425 121.7C77.5425 121.5 77.7425 121.2 77.6425 121.1C77.6425 121 77.9425 120.4 78.0425 120.2C78.1425 120 78.5425 119.5 78.6425 119.4C78.7425 119.3 78.9425 119.2 79.1425 119.1C79.3425 119 79.4425 118.9 79.5425 118.7C79.6425 118.5 79.8425 118.4 80.0425 118.3C80.2425 118.2 80.6425 118.4 80.6425 118.5C80.7425 118.6 80.7425 118.7 80.6425 118.8C80.5425 118.9 80.3425 119.1 80.5425 119.1C80.7425 119.2 80.9425 119.1 81.0425 119.1C81.1425 119.1 81.1425 119.3 81.1425 119.4C81.1425 119.5 81.1425 119.8 81.3425 119.7C81.5425 119.6 81.6425 119.5 81.9425 119.5C82.2425 119.5 82.6425 119.6 82.6425 119.4C82.6425 119.3 82.6425 119.1 82.5425 119.1C82.3425 119.1 82.1425 119.2 82.0425 119.1C81.9425 119 81.8425 119 81.6425 119C81.4425 119 81.4425 118.6 81.6425 118.6C81.8425 118.5 82.1425 118.7 82.3425 118.6C82.5425 118.5 82.7425 118.4 82.8425 118.4C82.9425 118.4 83.1425 118.4 83.3425 118.2C83.5425 118.1 83.8425 118 83.9425 118.1C84.1425 118.2 84.1425 118.3 84.0425 118.4C83.9425 118.5 83.6425 118.5 83.5425 118.6C83.4425 118.7 83.3425 118.7 83.4425 118.8C83.5425 118.9 83.6425 119 83.5425 119C83.4425 119 83.5425 119.2 83.5425 119.2C83.5425 119.2 83.4425 119.3 83.3425 119.2C83.2425 119.2 83.1425 119.1 83.0425 119.2C82.9425 119.3 82.7425 119.5 83.0425 119.5C83.2425 119.5 83.7425 119.6 84.0425 119.9C84.3425 120.2 84.4425 120.4 84.5425 120.6C84.6425 120.8 85.1425 120.7 85.4425 121C85.3425 121.4 85.4425 121.8 85.4425 122.1ZM93.9425 125.4C93.9425 125.5 93.7425 125.7 93.6425 125.5C93.5425 125.4 93.3425 125.2 93.2425 125.2C93.1425 125.3 92.8425 125.4 92.6425 125.6C92.5425 125.8 92.4425 125.9 92.2425 125.7C92.0425 125.5 91.6425 125.2 91.3425 125.1C91.0425 125 90.9425 125.2 90.7425 125C90.5425 124.7 90.5425 124.4 90.4425 124.2C90.3425 124 90.4425 123.8 90.5425 123.7C90.6425 123.7 90.7425 123.8 90.8425 123.8C90.9425 123.7 90.8425 123.6 90.9425 123.5C91.0425 123.4 91.2425 123.3 91.1425 123.2C91.0425 123.1 90.9425 123 90.9425 122.8C91.0425 122.7 91.2425 122.8 91.1425 122.6C91.0425 122.4 90.9425 122.3 90.8425 122.3C90.6425 122.3 90.7425 122.3 90.5425 122.2C90.3425 122.1 90.4425 121.9 90.2425 121.9C90.0425 121.9 89.9425 122 89.9425 121.8C89.8425 121.6 89.9425 121.5 89.6425 121.4C89.4425 121.2 89.3425 121.3 89.3425 121C89.3425 120.7 89.2425 120.5 89.3425 120.5C89.4425 120.4 89.4425 120.3 89.2425 120.3C89.0425 120.3 89.0425 120.4 88.9425 120.4H88.8425C88.7425 120.3 88.9425 120.2 88.8425 120.1C88.8425 120 88.6425 119.9 88.5425 119.7C88.4425 119.5 88.5425 119.2 88.6425 119C88.8425 118.9 89.1425 118.5 89.3425 118.3C89.4425 118.1 89.6425 118 89.8425 117.8C90.0425 117.7 90.4425 117.4 90.6425 117.4C90.8425 117.4 91.0425 117.5 91.2425 117.5C91.4425 117.5 91.6425 117.6 91.6425 117.8C91.6425 118 91.4425 118.1 91.5425 118.3C91.6425 118.5 91.7425 118.5 91.8425 118.6C91.9425 118.7 91.9425 118.9 91.8425 118.9C91.6425 118.9 91.7425 118.9 91.5425 118.8C91.4425 118.7 91.3425 118.6 91.3425 118.6C91.3425 118.6 91.3425 118.8 91.2425 118.8C91.1425 118.8 90.8425 118.8 90.8425 118.9C90.9425 119 91.1425 119 91.0425 119.1C90.9425 119.2 90.8425 119.3 90.7425 119.3C90.6425 119.3 90.3425 119.5 90.7425 119.7C91.1425 119.9 91.2425 119.9 91.4425 120.2C91.6425 120.5 91.5425 120.6 91.8425 120.6C92.1425 120.6 92.4425 120.5 92.3425 120.6C92.2425 120.7 91.9425 120.7 92.0425 120.8C92.0425 120.9 91.9425 121.2 92.1425 121.5C92.3425 121.8 92.4425 121.7 92.5425 121.7C92.6425 121.7 92.7425 121.6 92.6425 121.4C92.5425 121.2 92.3425 120.9 92.5425 120.9C92.7425 120.9 92.7425 121.1 92.7425 121.3C92.8425 121.4 93.0425 121.7 93.0425 121.8C93.0425 121.9 93.0425 122 92.8425 121.9C92.6425 121.9 92.3425 121.8 92.3425 122C92.3425 122.2 92.3425 122.4 92.4425 122.5C92.5425 122.6 92.9425 122.6 92.8425 122.7C92.7425 122.8 92.5425 122.8 92.6425 123C92.7425 123.2 92.9425 123.1 93.0425 123.4C93.2425 123.6 93.2425 123.7 93.2425 124.1C93.3425 124.5 93.4425 124.6 93.5425 124.7C93.7425 125.1 93.9425 125.3 93.9425 125.4Z" fill="#292B37"/>
<path d="M77.5425 122.7C77.4425 122.6 77.4425 122.5 77.5425 122.5C77.6425 122.4 77.5425 122.5 77.4425 122.5C77.3425 122.6 77.1425 122.5 76.9425 122.7C76.7425 122.9 76.6425 122.9 76.4425 123C76.1425 123 76.0425 123.2 76.1425 123.2C76.1425 123.2 76.3425 123.2 76.6425 123.2C76.9425 123.2 77.2425 123.1 77.5425 123.1C77.6425 122.8 77.6425 122.7 77.5425 122.7Z" fill="#292B37"/>
<path d="M255.143 70.9L280.143 0L291.643 25.2L310.843 5L321.943 16.3L303.443 36.3L327.343 47.9L255.143 70.9Z" fill="#FFFBFC"/>
<path d="M255.143 70.9L280.143 0L291.643 25.2L310.843 5L316.543 10.8L255.143 70.9Z" fill="#D4EBFF"/>
<path d="M255.345 83.6348L252.581 84.0845L256.323 107.082L259.087 106.632L255.345 83.6348Z" fill="#FFFBFC"/>
<path d="M243.762 79.0963L225.518 93.5889L227.26 95.7813L245.504 81.2887L243.762 79.0963Z" fill="#FFFBFC"/>
<path d="M222.119 60.0552L221.056 62.6455L242.611 71.4948L243.674 68.9046L222.119 60.0552Z" fill="#FFFBFC"/>
<path d="M249.839 40.7213L247.059 41.0576L249.858 64.1898L252.637 63.8536L249.839 40.7213Z" fill="#FFFBFC"/>
<path d="M262.094 76.9026L260.925 79.4473L282.1 89.1704L283.269 86.6257L262.094 76.9026Z" fill="#FFFBFC"/>
<path d="M358.543 194C358.543 206 348.643 215.8 336.643 215.8H331.143C327.443 215.8 323.943 214.8 320.843 213.2C318.643 212 316.743 210.5 315.143 208.7C311.543 204.8 309.343 199.6 309.343 193.9L309.443 170.4V169.1H309.343L309.443 153.1C309.443 141.4 319.143 131.8 330.843 131.9H333.143H335.043H336.443H336.843H337.343C341.343 131.9 344.943 133 348.143 134.9C349.143 135.5 350.143 136.2 350.943 136.9C355.543 140.8 358.443 146.6 358.443 153.2L358.543 194Z" fill="#323641"/>
<path d="M337.743 143.2V157.7C337.743 158 337.643 158.3 337.643 158.5C337.643 158.6 337.543 158.6 337.543 158.7C337.543 158.8 337.543 158.8 337.443 158.9V159C337.443 159.1 337.443 159.1 337.343 159.2V159.3C337.343 159.4 337.243 159.4 337.243 159.5C337.143 159.6 337.143 159.8 337.043 159.9C336.943 160 336.943 160.1 336.843 160.2L336.743 160.3C336.343 160.8 335.743 161.1 335.043 161.3C334.743 161.4 334.343 161.4 334.043 161.4C333.743 161.4 333.543 161.4 333.243 161.3C331.643 160.9 330.343 159.5 330.443 157.8V143.3C330.443 141.6 331.643 140.1 333.343 139.8C333.543 139.7 333.843 139.7 334.143 139.7C334.543 139.7 334.843 139.8 335.143 139.8C335.743 140 336.343 140.4 336.843 140.8L336.943 140.9C337.043 141 337.043 141.1 337.143 141.2C337.243 141.3 337.343 141.4 337.343 141.6C337.343 141.7 337.443 141.7 337.443 141.8V141.9C337.443 142 337.443 142 337.543 142.1V142.2C337.543 142.3 337.543 142.3 337.643 142.4C337.643 142.5 337.743 142.5 337.743 142.6C337.643 142.6 337.743 142.9 337.743 143.2Z" fill="#FFFBFC"/>
<path d="M358.543 194C358.543 206 348.643 215.8 336.643 215.8H331.143C327.443 215.8 323.943 214.8 320.843 213.2L350.643 138.2L351.143 136.9C355.743 140.8 358.643 146.6 358.643 153.2L358.543 194Z" fill="#292B37"/>
<path d="M275.843 288.7H129.243C122.443 288.7 116.943 283.2 116.943 276.4V221.4C116.943 214.6 122.443 209.1 129.243 209.1H275.843C282.643 209.1 288.143 214.6 288.143 221.4V276.4C288.143 283.2 282.643 288.7 275.843 288.7Z" fill="#323641"/>
<path d="M141.143 222.5H128.643V233.8H141.143V222.5Z" fill="#292B37"/>
<path d="M158.043 222.5H145.543V233.8H158.043V222.5Z" fill="#292B37"/>
<path d="M174.943 222.5H162.443V233.8H174.943V222.5Z" fill="#292B37"/>
<path d="M191.843 222.5H179.343V233.8H191.843V222.5Z" fill="#292B37"/>
<path d="M208.743 222.5H196.243V233.8H208.743V222.5Z" fill="#292B37"/>
<path d="M225.643 222.5H213.143V233.8H225.643V222.5Z" fill="#292B37"/>
<path d="M242.443 222.5H229.943V233.8H242.443V222.5Z" fill="#292B37"/>
<path d="M259.343 222.5H246.843V233.8H259.343V222.5Z" fill="#292B37"/>
<path d="M276.243 222.5H263.743V233.8H276.243V222.5Z" fill="#292B37"/>
<path d="M141.143 240.6H128.643V251.9H141.143V240.6Z" fill="#292B37"/>
<path d="M158.043 240.6H145.543V251.9H158.043V240.6Z" fill="#292B37"/>
<path d="M174.943 240.6H162.443V251.9H174.943V240.6Z" fill="#292B37"/>
<path d="M191.843 240.6H179.343V251.9H191.843V240.6Z" fill="#292B37"/>
<path d="M208.743 240.6H196.243V251.9H208.743V240.6Z" fill="#292B37"/>
<path d="M225.643 240.6H213.143V251.9H225.643V240.6Z" fill="#292B37"/>
<path d="M242.443 240.6H229.943V251.9H242.443V240.6Z" fill="#292B37"/>
<path d="M259.343 240.6H246.843V251.9H259.343V240.6Z" fill="#292B37"/>
<path d="M276.243 240.6H263.743V251.9H276.243V240.6Z" fill="#292B37"/>
<path d="M141.143 258.7H128.643V270H141.143V258.7Z" fill="#292B37"/>
<path d="M158.043 258.7H145.543V270H158.043V258.7Z" fill="#292B37"/>
<path d="M174.943 258.7H162.443V270H174.943V258.7Z" fill="#292B37"/>
<path d="M259.443 258.7H179.343V270H259.443V258.7Z" fill="#292B37"/>
<path d="M276.243 258.7H263.743V270H276.243V258.7Z" fill="#292B37"/>
<path d="M141.143 221.2H128.643V232.5H141.143V221.2Z" fill="#2D3039"/>
<path d="M158.043 221.2H145.543V232.5H158.043V221.2Z" fill="#2D3039"/>
<path d="M174.943 221.2H162.443V232.5H174.943V221.2Z" fill="#2D3039"/>
<path d="M191.843 221.2H179.343V232.5H191.843V221.2Z" fill="#2D3039"/>
<path d="M208.743 221.2H196.243V232.5H208.743V221.2Z" fill="#2D3039"/>
<path d="M225.643 221.2H213.143V232.5H225.643V221.2Z" fill="#2D3039"/>
<path d="M242.443 221.2H229.943V232.5H242.443V221.2Z" fill="#2D3039"/>
<path d="M259.343 221.2H246.843V232.5H259.343V221.2Z" fill="#2D3039"/>
<path d="M276.243 221.2H263.743V232.5H276.243V221.2Z" fill="#2D3039"/>
<path d="M141.143 239.3H128.643V250.6H141.143V239.3Z" fill="#2D3039"/>
<path d="M158.043 239.3H145.543V250.6H158.043V239.3Z" fill="#2D3039"/>
<path d="M174.943 239.3H162.443V250.6H174.943V239.3Z" fill="#2D3039"/>
<path d="M191.843 239.3H179.343V250.6H191.843V239.3Z" fill="#2D3039"/>
<path d="M208.743 239.3H196.243V250.6H208.743V239.3Z" fill="#2D3039"/>
<path d="M225.643 239.3H213.143V250.6H225.643V239.3Z" fill="#2D3039"/>
<path d="M242.443 239.3H229.943V250.6H242.443V239.3Z" fill="#2D3039"/>
<path d="M259.343 239.3H246.843V250.6H259.343V239.3Z" fill="#2D3039"/>
<path d="M276.243 239.3H263.743V250.6H276.243V239.3Z" fill="#2D3039"/>
<path d="M141.143 257.4H128.643V268.7H141.143V257.4Z" fill="#2D3039"/>
<path d="M158.043 257.4H145.543V268.7H158.043V257.4Z" fill="#2D3039"/>
<path d="M174.943 257.4H162.443V268.7H174.943V257.4Z" fill="#2D3039"/>
<path d="M259.443 257.4H179.343V268.7H259.443V257.4Z" fill="#2D3039"/>
<path d="M276.243 257.4H263.743V268.7H276.243V257.4Z" fill="#2D3039"/>
</svg>
